<?xml version="1.0" encoding="UTF-8" standalone="no"?>
<!DOCTYPE svg PUBLIC "-//W3C//DTD SVG 1.1//EN"
 "http://www.w3.org/Graphics/SVG/1.1/DTD/svg11.dtd">
<!-- Generated by graphviz version 2.38.0 (20140413.2041)
 -->
<!-- Title: G Pages: 1 -->
<svg width="1582pt" height="836pt"
 viewBox="0.00 0.00 1582.44 836.00" xmlns="http://www.w3.org/2000/svg" xmlns:xlink="http://www.w3.org/1999/xlink">
<g id="graph0" class="graph" transform="scale(1 1) rotate(0) translate(4 832)">
<title>G</title>
<polygon fill="white" stroke="none" points="-4,4 -4,-832 1578.44,-832 1578.44,4 -4,4"/>
<!-- 0 root:  -->
<g id="node1" class="node"><title>0 root: </title>
<ellipse fill="none" stroke="black" cx="755.347" cy="-810" rx="36.2938" ry="18"/>
<text text-anchor="middle" x="755.347" y="-806.3" font-family="Times,serif" font-size="14.00">0 root: </text>
</g>
<!-- 42 chunk:  -->
<g id="node2" class="node"><title>42 chunk: </title>
<ellipse fill="none" stroke="black" cx="755.347" cy="-738" rx="48.1917" ry="18"/>
<text text-anchor="middle" x="755.347" y="-734.3" font-family="Times,serif" font-size="14.00">42 chunk: </text>
</g>
<!-- 0 root: &#45;&gt;42 chunk:  -->
<g id="edge1" class="edge"><title>0 root: &#45;&gt;42 chunk: </title>
<path fill="none" stroke="black" d="M755.347,-791.697C755.347,-783.983 755.347,-774.712 755.347,-766.112"/>
<polygon fill="black" stroke="black" points="758.847,-766.104 755.347,-756.104 751.847,-766.104 758.847,-766.104"/>
</g>
<!-- 41 stat: function -->
<g id="node3" class="node"><title>41 stat: function</title>
<ellipse fill="none" stroke="black" cx="297.347" cy="-666" rx="68.4888" ry="18"/>
<text text-anchor="middle" x="297.347" y="-662.3" font-family="Times,serif" font-size="14.00">41 stat: function</text>
</g>
<!-- 42 chunk: &#45;&gt;41 stat: function -->
<g id="edge2" class="edge"><title>42 chunk: &#45;&gt;41 stat: function</title>
<path fill="none" stroke="black" d="M711.432,-730.288C631.179,-718.022 460.346,-691.913 365.092,-677.354"/>
<polygon fill="black" stroke="black" points="365.402,-673.861 354.988,-675.81 364.345,-680.781 365.402,-673.861"/>
</g>
<!-- 59 stat: for -->
<g id="node22" class="node"><title>59 stat: for</title>
<ellipse fill="none" stroke="black" cx="648.347" cy="-666" rx="49.2915" ry="18"/>
<text text-anchor="middle" x="648.347" y="-662.3" font-family="Times,serif" font-size="14.00">59 stat: for</text>
</g>
<!-- 42 chunk: &#45;&gt;59 stat: for -->
<g id="edge21" class="edge"><title>42 chunk: &#45;&gt;59 stat: for</title>
<path fill="none" stroke="black" d="M732.392,-721.983C717.019,-711.926 696.584,-698.557 679.714,-687.521"/>
<polygon fill="black" stroke="black" points="681.547,-684.538 671.263,-681.992 677.715,-690.395 681.547,-684.538"/>
</g>
<!-- 67 functioncall:  -->
<g id="node40" class="node"><title>67 functioncall: </title>
<ellipse fill="none" stroke="black" cx="862.347" cy="-666" rx="68.7879" ry="18"/>
<text text-anchor="middle" x="862.347" y="-662.3" font-family="Times,serif" font-size="14.00">67 functioncall: </text>
</g>
<!-- 42 chunk: &#45;&gt;67 functioncall:  -->
<g id="edge39" class="edge"><title>42 chunk: &#45;&gt;67 functioncall: </title>
<path fill="none" stroke="black" d="M778.301,-721.983C793.119,-712.289 812.639,-699.519 829.137,-688.726"/>
<polygon fill="black" stroke="black" points="831.49,-691.369 837.942,-682.966 827.658,-685.511 831.49,-691.369"/>
</g>
<!-- 81 functioncall:  -->
<g id="node47" class="node"><title>81 functioncall: </title>
<ellipse fill="none" stroke="black" cx="1074.35" cy="-666" rx="68.7879" ry="18"/>
<text text-anchor="middle" x="1074.35" y="-662.3" font-family="Times,serif" font-size="14.00">81 functioncall: </text>
</g>
<!-- 42 chunk: &#45;&gt;81 functioncall:  -->
<g id="edge46" class="edge"><title>42 chunk: &#45;&gt;81 functioncall: </title>
<path fill="none" stroke="black" d="M795.748,-728.134C850.731,-716.069 949.582,-694.378 1013.54,-680.342"/>
<polygon fill="black" stroke="black" points="1014.48,-683.72 1023.5,-678.158 1012.98,-676.883 1014.48,-683.72"/>
</g>
<!-- 1 funcname: fibonacci -->
<g id="node4" class="node"><title>1 funcname: fibonacci</title>
<ellipse fill="none" stroke="black" cx="129.347" cy="-594" rx="90.1842" ry="18"/>
<text text-anchor="middle" x="129.347" y="-590.3" font-family="Times,serif" font-size="14.00">1 funcname: fibonacci</text>
</g>
<!-- 41 stat: function&#45;&gt;1 funcname: fibonacci -->
<g id="edge3" class="edge"><title>41 stat: function&#45;&gt;1 funcname: fibonacci</title>
<path fill="none" stroke="black" d="M262.537,-650.496C237.433,-640.036 203.278,-625.805 175.841,-614.373"/>
<polygon fill="black" stroke="black" points="177.019,-611.072 166.442,-610.457 174.327,-617.534 177.019,-611.072"/>
</g>
<!-- 40 funcbody:  -->
<g id="node5" class="node"><title>40 funcbody: </title>
<ellipse fill="none" stroke="black" cx="297.347" cy="-594" rx="59.5901" ry="18"/>
<text text-anchor="middle" x="297.347" y="-590.3" font-family="Times,serif" font-size="14.00">40 funcbody: </text>
</g>
<!-- 41 stat: function&#45;&gt;40 funcbody:  -->
<g id="edge4" class="edge"><title>41 stat: function&#45;&gt;40 funcbody: </title>
<path fill="none" stroke="black" d="M297.347,-647.697C297.347,-639.983 297.347,-630.712 297.347,-622.112"/>
<polygon fill="black" stroke="black" points="300.847,-622.104 297.347,-612.104 293.847,-622.104 300.847,-622.104"/>
</g>
<!-- 4 parlist:  -->
<g id="node6" class="node"><title>4 parlist: </title>
<ellipse fill="none" stroke="black" cx="196.347" cy="-522" rx="44.393" ry="18"/>
<text text-anchor="middle" x="196.347" y="-518.3" font-family="Times,serif" font-size="14.00">4 parlist: </text>
</g>
<!-- 40 funcbody: &#45;&gt;4 parlist:  -->
<g id="edge5" class="edge"><title>40 funcbody: &#45;&gt;4 parlist: </title>
<path fill="none" stroke="black" d="M274.68,-577.291C260.351,-567.359 241.674,-554.415 226.151,-543.656"/>
<polygon fill="black" stroke="black" points="228.112,-540.757 217.899,-537.938 224.125,-546.511 228.112,-540.757"/>
</g>
<!-- 39 block:  -->
<g id="node9" class="node"><title>39 block: </title>
<ellipse fill="none" stroke="black" cx="309.347" cy="-522" rx="46.2923" ry="18"/>
<text text-anchor="middle" x="309.347" y="-518.3" font-family="Times,serif" font-size="14.00">39 block: </text>
</g>
<!-- 40 funcbody: &#45;&gt;39 block:  -->
<g id="edge8" class="edge"><title>40 funcbody: &#45;&gt;39 block: </title>
<path fill="none" stroke="black" d="M300.313,-575.697C301.635,-567.983 303.224,-558.712 304.699,-550.112"/>
<polygon fill="black" stroke="black" points="308.174,-550.552 306.414,-540.104 301.275,-549.369 308.174,-550.552"/>
</g>
<!-- 2 namelist:  -->
<g id="node7" class="node"><title>2 namelist: </title>
<ellipse fill="none" stroke="black" cx="193.347" cy="-450" rx="52.7911" ry="18"/>
<text text-anchor="middle" x="193.347" y="-446.3" font-family="Times,serif" font-size="14.00">2 namelist: </text>
</g>
<!-- 4 parlist: &#45;&gt;2 namelist:  -->
<g id="edge6" class="edge"><title>4 parlist: &#45;&gt;2 namelist: </title>
<path fill="none" stroke="black" d="M195.605,-503.697C195.274,-495.983 194.877,-486.712 194.509,-478.112"/>
<polygon fill="black" stroke="black" points="198.005,-477.945 194.08,-468.104 191.011,-478.245 198.005,-477.945"/>
</g>
<!-- 3 name: n -->
<g id="node8" class="node"><title>3 name: n</title>
<ellipse fill="none" stroke="black" cx="193.347" cy="-378" rx="46.2923" ry="18"/>
<text text-anchor="middle" x="193.347" y="-374.3" font-family="Times,serif" font-size="14.00">3 name: n</text>
</g>
<!-- 2 namelist: &#45;&gt;3 name: n -->
<g id="edge7" class="edge"><title>2 namelist: &#45;&gt;3 name: n</title>
<path fill="none" stroke="black" d="M193.347,-431.697C193.347,-423.983 193.347,-414.712 193.347,-406.112"/>
<polygon fill="black" stroke="black" points="196.847,-406.104 193.347,-396.104 189.847,-406.104 196.847,-406.104"/>
</g>
<!-- 38 chunk:  -->
<g id="node10" class="node"><title>38 chunk: </title>
<ellipse fill="none" stroke="black" cx="312.347" cy="-450" rx="48.1917" ry="18"/>
<text text-anchor="middle" x="312.347" y="-446.3" font-family="Times,serif" font-size="14.00">38 chunk: </text>
</g>
<!-- 39 block: &#45;&gt;38 chunk:  -->
<g id="edge9" class="edge"><title>39 block: &#45;&gt;38 chunk: </title>
<path fill="none" stroke="black" d="M310.088,-503.697C310.419,-495.983 310.816,-486.712 311.185,-478.112"/>
<polygon fill="black" stroke="black" points="314.682,-478.245 311.614,-468.104 307.688,-477.945 314.682,-478.245"/>
</g>
<!-- 36 stat: if -->
<g id="node11" class="node"><title>36 stat: if</title>
<ellipse fill="none" stroke="black" cx="312.347" cy="-378" rx="44.393" ry="18"/>
<text text-anchor="middle" x="312.347" y="-374.3" font-family="Times,serif" font-size="14.00">36 stat: if</text>
</g>
<!-- 38 chunk: &#45;&gt;36 stat: if -->
<g id="edge10" class="edge"><title>38 chunk: &#45;&gt;36 stat: if</title>
<path fill="none" stroke="black" d="M312.347,-431.697C312.347,-423.983 312.347,-414.712 312.347,-406.112"/>
<polygon fill="black" stroke="black" points="315.847,-406.104 312.347,-396.104 308.847,-406.104 315.847,-406.104"/>
</g>
<!-- 8 exp:  -->
<g id="node12" class="node"><title>8 exp: </title>
<ellipse fill="none" stroke="black" cx="179.347" cy="-306" rx="35.194" ry="18"/>
<text text-anchor="middle" x="179.347" y="-302.3" font-family="Times,serif" font-size="14.00">8 exp: </text>
</g>
<!-- 36 stat: if&#45;&gt;8 exp:  -->
<g id="edge11" class="edge"><title>36 stat: if&#45;&gt;8 exp: </title>
<path fill="none" stroke="black" d="M286.387,-363.337C265.126,-352.147 234.923,-336.251 212.019,-324.196"/>
<polygon fill="black" stroke="black" points="213.489,-321.014 203.009,-319.454 210.228,-327.209 213.489,-321.014"/>
</g>
<!-- 13 block:  -->
<g id="node16" class="node"><title>13 block: </title>
<ellipse fill="none" stroke="black" cx="312.347" cy="-306" rx="46.2923" ry="18"/>
<text text-anchor="middle" x="312.347" y="-302.3" font-family="Times,serif" font-size="14.00">13 block: </text>
</g>
<!-- 36 stat: if&#45;&gt;13 block:  -->
<g id="edge15" class="edge"><title>36 stat: if&#45;&gt;13 block: </title>
<path fill="none" stroke="black" d="M312.347,-359.697C312.347,-351.983 312.347,-342.712 312.347,-334.112"/>
<polygon fill="black" stroke="black" points="315.847,-334.104 312.347,-324.104 308.847,-334.104 315.847,-334.104"/>
</g>
<!-- 37 else:  -->
<g id="node21" class="node"><title>37 else: </title>
<ellipse fill="none" stroke="black" cx="416.347" cy="-306" rx="40.0939" ry="18"/>
<text text-anchor="middle" x="416.347" y="-302.3" font-family="Times,serif" font-size="14.00">37 else: </text>
</g>
<!-- 36 stat: if&#45;&gt;37 else:  -->
<g id="edge20" class="edge"><title>36 stat: if&#45;&gt;37 else: </title>
<path fill="none" stroke="black" d="M334.148,-362.326C349.365,-352.084 369.861,-338.289 386.579,-327.036"/>
<polygon fill="black" stroke="black" points="388.588,-329.903 394.93,-321.415 384.68,-324.095 388.588,-329.903"/>
</g>
<!-- 5 var: n -->
<g id="node13" class="node"><title>5 var: n</title>
<ellipse fill="none" stroke="black" cx="38.3466" cy="-234" rx="38.1938" ry="18"/>
<text text-anchor="middle" x="38.3466" y="-230.3" font-family="Times,serif" font-size="14.00">5 var: n</text>
</g>
<!-- 8 exp: &#45;&gt;5 var: n -->
<g id="edge12" class="edge"><title>8 exp: &#45;&gt;5 var: n</title>
<path fill="none" stroke="black" d="M155.108,-292.967C132.387,-281.687 98.1885,-264.709 72.6672,-252.039"/>
<polygon fill="black" stroke="black" points="74.2078,-248.896 63.6945,-247.584 71.0951,-255.166 74.2078,-248.896"/>
</g>
<!-- 6 binop: &lt; -->
<g id="node14" class="node"><title>6 binop: &lt;</title>
<ellipse fill="none" stroke="black" cx="142.347" cy="-234" rx="48.1917" ry="18"/>
<text text-anchor="middle" x="142.347" y="-230.3" font-family="Times,serif" font-size="14.00">6 binop: &lt;</text>
</g>
<!-- 8 exp: &#45;&gt;6 binop: &lt; -->
<g id="edge13" class="edge"><title>8 exp: &#45;&gt;6 binop: &lt;</title>
<path fill="none" stroke="black" d="M170.578,-288.411C166.264,-280.249 160.963,-270.22 156.124,-261.065"/>
<polygon fill="black" stroke="black" points="159.077,-259.162 151.309,-251.956 152.888,-262.433 159.077,-259.162"/>
</g>
<!-- 7 exp: 3 -->
<g id="node15" class="node"><title>7 exp: 3</title>
<ellipse fill="none" stroke="black" cx="248.347" cy="-234" rx="39.7935" ry="18"/>
<text text-anchor="middle" x="248.347" y="-230.3" font-family="Times,serif" font-size="14.00">7 exp: 3</text>
</g>
<!-- 8 exp: &#45;&gt;7 exp: 3 -->
<g id="edge14" class="edge"><title>8 exp: &#45;&gt;7 exp: 3</title>
<path fill="none" stroke="black" d="M194.66,-289.465C203.733,-280.26 215.403,-268.421 225.543,-258.134"/>
<polygon fill="black" stroke="black" points="228.07,-260.556 232.598,-250.977 223.085,-255.642 228.07,-260.556"/>
</g>
<!-- 12 chunk:  -->
<g id="node17" class="node"><title>12 chunk: </title>
<ellipse fill="none" stroke="black" cx="354.347" cy="-234" rx="48.1917" ry="18"/>
<text text-anchor="middle" x="354.347" y="-230.3" font-family="Times,serif" font-size="14.00">12 chunk: </text>
</g>
<!-- 13 block: &#45;&gt;12 chunk:  -->
<g id="edge16" class="edge"><title>13 block: &#45;&gt;12 chunk: </title>
<path fill="none" stroke="black" d="M322.3,-288.411C327.249,-280.163 333.341,-270.009 338.881,-260.777"/>
<polygon fill="black" stroke="black" points="342.029,-262.332 344.173,-251.956 336.027,-258.73 342.029,-262.332"/>
</g>
<!-- 11 laststat: return -->
<g id="node18" class="node"><title>11 laststat: return</title>
<ellipse fill="none" stroke="black" cx="354.347" cy="-162" rx="72.2875" ry="18"/>
<text text-anchor="middle" x="354.347" y="-158.3" font-family="Times,serif" font-size="14.00">11 laststat: return</text>
</g>
<!-- 12 chunk: &#45;&gt;11 laststat: return -->
<g id="edge17" class="edge"><title>12 chunk: &#45;&gt;11 laststat: return</title>
<path fill="none" stroke="black" d="M354.347,-215.697C354.347,-207.983 354.347,-198.712 354.347,-190.112"/>
<polygon fill="black" stroke="black" points="357.847,-190.104 354.347,-180.104 350.847,-190.104 357.847,-190.104"/>
</g>
<!-- 10 explist:  -->
<g id="node19" class="node"><title>10 explist: </title>
<ellipse fill="none" stroke="black" cx="354.347" cy="-90" rx="50.0912" ry="18"/>
<text text-anchor="middle" x="354.347" y="-86.3" font-family="Times,serif" font-size="14.00">10 explist: </text>
</g>
<!-- 11 laststat: return&#45;&gt;10 explist:  -->
<g id="edge18" class="edge"><title>11 laststat: return&#45;&gt;10 explist: </title>
<path fill="none" stroke="black" d="M354.347,-143.697C354.347,-135.983 354.347,-126.712 354.347,-118.112"/>
<polygon fill="black" stroke="black" points="357.847,-118.104 354.347,-108.104 350.847,-118.104 357.847,-118.104"/>
</g>
<!-- 9 exp: 1 -->
<g id="node20" class="node"><title>9 exp: 1</title>
<ellipse fill="none" stroke="black" cx="354.347" cy="-18" rx="39.7935" ry="18"/>
<text text-anchor="middle" x="354.347" y="-14.3" font-family="Times,serif" font-size="14.00">9 exp: 1</text>
</g>
<!-- 10 explist: &#45;&gt;9 exp: 1 -->
<g id="edge19" class="edge"><title>10 explist: &#45;&gt;9 exp: 1</title>
<path fill="none" stroke="black" d="M354.347,-71.6966C354.347,-63.9827 354.347,-54.7125 354.347,-46.1124"/>
<polygon fill="black" stroke="black" points="357.847,-46.1043 354.347,-36.1043 350.847,-46.1044 357.847,-46.1043"/>
</g>
<!-- 60 name: n -->
<g id="node23" class="node"><title>60 name: n</title>
<ellipse fill="none" stroke="black" cx="425.347" cy="-594" rx="50.8918" ry="18"/>
<text text-anchor="middle" x="425.347" y="-590.3" font-family="Times,serif" font-size="14.00">60 name: n</text>
</g>
<!-- 59 stat: for&#45;&gt;60 name: n -->
<g id="edge22" class="edge"><title>59 stat: for&#45;&gt;60 name: n</title>
<path fill="none" stroke="black" d="M612.021,-653.597C573.745,-641.583 513.346,-622.623 471.669,-609.541"/>
<polygon fill="black" stroke="black" points="472.616,-606.17 462.027,-606.514 470.52,-612.848 472.616,-606.17"/>
</g>
<!-- 43 exp: 1 -->
<g id="node24" class="node"><title>43 exp: 1</title>
<ellipse fill="none" stroke="black" cx="538.347" cy="-594" rx="44.393" ry="18"/>
<text text-anchor="middle" x="538.347" y="-590.3" font-family="Times,serif" font-size="14.00">43 exp: 1</text>
</g>
<!-- 59 stat: for&#45;&gt;43 exp: 1 -->
<g id="edge23" class="edge"><title>59 stat: for&#45;&gt;43 exp: 1</title>
<path fill="none" stroke="black" d="M624.749,-649.983C608.729,-639.789 587.364,-626.193 569.888,-615.072"/>
<polygon fill="black" stroke="black" points="571.468,-611.929 561.152,-609.513 567.71,-617.834 571.468,-611.929"/>
</g>
<!-- 44 exp: 16 -->
<g id="node25" class="node"><title>44 exp: 16</title>
<ellipse fill="none" stroke="black" cx="648.347" cy="-594" rx="48.1917" ry="18"/>
<text text-anchor="middle" x="648.347" y="-590.3" font-family="Times,serif" font-size="14.00">44 exp: 16</text>
</g>
<!-- 59 stat: for&#45;&gt;44 exp: 16 -->
<g id="edge24" class="edge"><title>59 stat: for&#45;&gt;44 exp: 16</title>
<path fill="none" stroke="black" d="M648.347,-647.697C648.347,-639.983 648.347,-630.712 648.347,-622.112"/>
<polygon fill="black" stroke="black" points="651.847,-622.104 648.347,-612.104 644.847,-622.104 651.847,-622.104"/>
</g>
<!-- 58 block:  -->
<g id="node26" class="node"><title>58 block: </title>
<ellipse fill="none" stroke="black" cx="760.347" cy="-594" rx="46.2923" ry="18"/>
<text text-anchor="middle" x="760.347" y="-590.3" font-family="Times,serif" font-size="14.00">58 block: </text>
</g>
<!-- 59 stat: for&#45;&gt;58 block:  -->
<g id="edge25" class="edge"><title>59 stat: for&#45;&gt;58 block: </title>
<path fill="none" stroke="black" d="M672.099,-650.155C688.394,-639.971 710.214,-626.333 728.08,-615.166"/>
<polygon fill="black" stroke="black" points="730.388,-617.852 737.013,-609.584 726.678,-611.916 730.388,-617.852"/>
</g>
<!-- 57 chunk:  -->
<g id="node27" class="node"><title>57 chunk: </title>
<ellipse fill="none" stroke="black" cx="689.347" cy="-522" rx="48.1917" ry="18"/>
<text text-anchor="middle" x="689.347" y="-518.3" font-family="Times,serif" font-size="14.00">57 chunk: </text>
</g>
<!-- 58 block: &#45;&gt;57 chunk:  -->
<g id="edge26" class="edge"><title>58 block: &#45;&gt;57 chunk: </title>
<path fill="none" stroke="black" d="M744.236,-577.116C735.017,-568.027 723.283,-556.458 713.032,-546.351"/>
<polygon fill="black" stroke="black" points="715.465,-543.835 705.887,-539.307 710.55,-548.82 715.465,-543.835"/>
</g>
<!-- 56 functioncall:  -->
<g id="node28" class="node"><title>56 functioncall: </title>
<ellipse fill="none" stroke="black" cx="689.347" cy="-450" rx="68.7879" ry="18"/>
<text text-anchor="middle" x="689.347" y="-446.3" font-family="Times,serif" font-size="14.00">56 functioncall: </text>
</g>
<!-- 57 chunk: &#45;&gt;56 functioncall:  -->
<g id="edge27" class="edge"><title>57 chunk: &#45;&gt;56 functioncall: </title>
<path fill="none" stroke="black" d="M689.347,-503.697C689.347,-495.983 689.347,-486.712 689.347,-478.112"/>
<polygon fill="black" stroke="black" points="692.847,-478.104 689.347,-468.104 685.847,-478.104 692.847,-478.104"/>
</g>
<!-- 46 var:  -->
<g id="node29" class="node"><title>46 var: </title>
<ellipse fill="none" stroke="black" cx="664.347" cy="-378" rx="38.1938" ry="18"/>
<text text-anchor="middle" x="664.347" y="-374.3" font-family="Times,serif" font-size="14.00">46 var: </text>
</g>
<!-- 56 functioncall: &#45;&gt;46 var:  -->
<g id="edge28" class="edge"><title>56 functioncall: &#45;&gt;46 var: </title>
<path fill="none" stroke="black" d="M683.295,-432.055C680.439,-424.059 676.965,-414.331 673.775,-405.4"/>
<polygon fill="black" stroke="black" points="677.002,-404.029 670.343,-395.789 670.41,-406.384 677.002,-404.029"/>
</g>
<!-- 55 args:  -->
<g id="node32" class="node"><title>55 args: </title>
<ellipse fill="none" stroke="black" cx="779.347" cy="-378" rx="41.6928" ry="18"/>
<text text-anchor="middle" x="779.347" y="-374.3" font-family="Times,serif" font-size="14.00">55 args: </text>
</g>
<!-- 56 functioncall: &#45;&gt;55 args:  -->
<g id="edge31" class="edge"><title>56 functioncall: &#45;&gt;55 args: </title>
<path fill="none" stroke="black" d="M710.221,-432.765C722.605,-423.132 738.452,-410.807 751.847,-400.389"/>
<polygon fill="black" stroke="black" points="754.073,-403.091 759.818,-394.189 749.776,-397.566 754.073,-403.091"/>
</g>
<!-- 45 var: io -->
<g id="node30" class="node"><title>45 var: io</title>
<ellipse fill="none" stroke="black" cx="537.347" cy="-306" rx="44.6926" ry="18"/>
<text text-anchor="middle" x="537.347" y="-302.3" font-family="Times,serif" font-size="14.00">45 var: io</text>
</g>
<!-- 46 var: &#45;&gt;45 var: io -->
<g id="edge29" class="edge"><title>46 var: &#45;&gt;45 var: io</title>
<path fill="none" stroke="black" d="M640.459,-363.834C621.094,-353.16 593.547,-337.977 571.796,-325.988"/>
<polygon fill="black" stroke="black" points="573.318,-322.83 562.87,-321.068 569.939,-328.961 573.318,-322.83"/>
</g>
<!-- 47 name: write -->
<g id="node31" class="node"><title>47 name: write</title>
<ellipse fill="none" stroke="black" cx="664.347" cy="-306" rx="64.189" ry="18"/>
<text text-anchor="middle" x="664.347" y="-302.3" font-family="Times,serif" font-size="14.00">47 name: write</text>
</g>
<!-- 46 var: &#45;&gt;47 name: write -->
<g id="edge30" class="edge"><title>46 var: &#45;&gt;47 name: write</title>
<path fill="none" stroke="black" d="M664.347,-359.697C664.347,-351.983 664.347,-342.712 664.347,-334.112"/>
<polygon fill="black" stroke="black" points="667.847,-334.104 664.347,-324.104 660.847,-334.104 667.847,-334.104"/>
</g>
<!-- 53 explist:  -->
<g id="node33" class="node"><title>53 explist: </title>
<ellipse fill="none" stroke="black" cx="796.347" cy="-306" rx="50.0912" ry="18"/>
<text text-anchor="middle" x="796.347" y="-302.3" font-family="Times,serif" font-size="14.00">53 explist: </text>
</g>
<!-- 55 args: &#45;&gt;53 explist:  -->
<g id="edge32" class="edge"><title>55 args: &#45;&gt;53 explist: </title>
<path fill="none" stroke="black" d="M783.462,-360.055C785.355,-352.261 787.647,-342.822 789.77,-334.079"/>
<polygon fill="black" stroke="black" points="793.192,-334.819 792.151,-324.275 786.39,-333.167 793.192,-334.819"/>
</g>
<!-- 52 functioncall:  -->
<g id="node34" class="node"><title>52 functioncall: </title>
<ellipse fill="none" stroke="black" cx="684.347" cy="-234" rx="68.7879" ry="18"/>
<text text-anchor="middle" x="684.347" y="-230.3" font-family="Times,serif" font-size="14.00">52 functioncall: </text>
</g>
<!-- 53 explist: &#45;&gt;52 functioncall:  -->
<g id="edge33" class="edge"><title>53 explist: &#45;&gt;52 functioncall: </title>
<path fill="none" stroke="black" d="M772.594,-290.155C756.846,-280.312 735.937,-267.244 718.424,-256.299"/>
<polygon fill="black" stroke="black" points="719.956,-253.129 709.621,-250.797 716.246,-259.065 719.956,-253.129"/>
</g>
<!-- 54 exp: ,  -->
<g id="node39" class="node"><title>54 exp: , </title>
<ellipse fill="none" stroke="black" cx="815.347" cy="-234" rx="44.393" ry="18"/>
<text text-anchor="middle" x="815.347" y="-230.3" font-family="Times,serif" font-size="14.00">54 exp: , </text>
</g>
<!-- 53 explist: &#45;&gt;54 exp: ,  -->
<g id="edge38" class="edge"><title>53 explist: &#45;&gt;54 exp: , </title>
<path fill="none" stroke="black" d="M800.946,-288.055C803.061,-280.261 805.624,-270.822 807.997,-262.079"/>
<polygon fill="black" stroke="black" points="811.416,-262.843 810.658,-252.275 804.66,-261.009 811.416,-262.843"/>
</g>
<!-- 48 var: fibonacci -->
<g id="node35" class="node"><title>48 var: fibonacci</title>
<ellipse fill="none" stroke="black" cx="571.347" cy="-162" rx="70.6878" ry="18"/>
<text text-anchor="middle" x="571.347" y="-158.3" font-family="Times,serif" font-size="14.00">48 var: fibonacci</text>
</g>
<!-- 52 functioncall: &#45;&gt;48 var: fibonacci -->
<g id="edge34" class="edge"><title>52 functioncall: &#45;&gt;48 var: fibonacci</title>
<path fill="none" stroke="black" d="M658.705,-217.116C642.957,-207.36 622.595,-194.747 605.492,-184.152"/>
<polygon fill="black" stroke="black" points="607.231,-181.112 596.887,-178.821 603.544,-187.063 607.231,-181.112"/>
</g>
<!-- 51 args:  -->
<g id="node36" class="node"><title>51 args: </title>
<ellipse fill="none" stroke="black" cx="701.347" cy="-162" rx="41.6928" ry="18"/>
<text text-anchor="middle" x="701.347" y="-158.3" font-family="Times,serif" font-size="14.00">51 args: </text>
</g>
<!-- 52 functioncall: &#45;&gt;51 args:  -->
<g id="edge35" class="edge"><title>52 functioncall: &#45;&gt;51 args: </title>
<path fill="none" stroke="black" d="M688.549,-215.697C690.443,-207.898 692.723,-198.509 694.831,-189.829"/>
<polygon fill="black" stroke="black" points="698.234,-190.648 697.193,-180.104 691.431,-188.996 698.234,-190.648"/>
</g>
<!-- 50 explist:  -->
<g id="node37" class="node"><title>50 explist: </title>
<ellipse fill="none" stroke="black" cx="701.347" cy="-90" rx="50.0912" ry="18"/>
<text text-anchor="middle" x="701.347" y="-86.3" font-family="Times,serif" font-size="14.00">50 explist: </text>
</g>
<!-- 51 args: &#45;&gt;50 explist:  -->
<g id="edge36" class="edge"><title>51 args: &#45;&gt;50 explist: </title>
<path fill="none" stroke="black" d="M701.347,-143.697C701.347,-135.983 701.347,-126.712 701.347,-118.112"/>
<polygon fill="black" stroke="black" points="704.847,-118.104 701.347,-108.104 697.847,-118.104 704.847,-118.104"/>
</g>
<!-- 49 var: n -->
<g id="node38" class="node"><title>49 var: n</title>
<ellipse fill="none" stroke="black" cx="701.347" cy="-18" rx="42.4939" ry="18"/>
<text text-anchor="middle" x="701.347" y="-14.3" font-family="Times,serif" font-size="14.00">49 var: n</text>
</g>
<!-- 50 explist: &#45;&gt;49 var: n -->
<g id="edge37" class="edge"><title>50 explist: &#45;&gt;49 var: n</title>
<path fill="none" stroke="black" d="M701.347,-71.6966C701.347,-63.9827 701.347,-54.7125 701.347,-46.1124"/>
<polygon fill="black" stroke="black" points="704.847,-46.1043 701.347,-36.1043 697.847,-46.1044 704.847,-46.1043"/>
</g>
<!-- 62 var:  -->
<g id="node41" class="node"><title>62 var: </title>
<ellipse fill="none" stroke="black" cx="862.347" cy="-594" rx="38.1938" ry="18"/>
<text text-anchor="middle" x="862.347" y="-590.3" font-family="Times,serif" font-size="14.00">62 var: </text>
</g>
<!-- 67 functioncall: &#45;&gt;62 var:  -->
<g id="edge40" class="edge"><title>67 functioncall: &#45;&gt;62 var: </title>
<path fill="none" stroke="black" d="M862.347,-647.697C862.347,-639.983 862.347,-630.712 862.347,-622.112"/>
<polygon fill="black" stroke="black" points="865.847,-622.104 862.347,-612.104 858.847,-622.104 865.847,-622.104"/>
</g>
<!-- 66 args:  -->
<g id="node44" class="node"><title>66 args: </title>
<ellipse fill="none" stroke="black" cx="960.347" cy="-594" rx="41.6928" ry="18"/>
<text text-anchor="middle" x="960.347" y="-590.3" font-family="Times,serif" font-size="14.00">66 args: </text>
</g>
<!-- 67 functioncall: &#45;&gt;66 args:  -->
<g id="edge43" class="edge"><title>67 functioncall: &#45;&gt;66 args: </title>
<path fill="none" stroke="black" d="M885.076,-648.765C898.878,-638.906 916.628,-626.228 931.424,-615.659"/>
<polygon fill="black" stroke="black" points="933.64,-618.377 939.743,-609.717 929.571,-612.681 933.64,-618.377"/>
</g>
<!-- 61 var: io -->
<g id="node42" class="node"><title>61 var: io</title>
<ellipse fill="none" stroke="black" cx="800.347" cy="-522" rx="44.6926" ry="18"/>
<text text-anchor="middle" x="800.347" y="-518.3" font-family="Times,serif" font-size="14.00">61 var: io</text>
</g>
<!-- 62 var: &#45;&gt;61 var: io -->
<g id="edge41" class="edge"><title>62 var: &#45;&gt;61 var: io</title>
<path fill="none" stroke="black" d="M848.278,-577.116C840.384,-568.204 830.378,-556.906 821.552,-546.942"/>
<polygon fill="black" stroke="black" points="824.04,-544.472 814.79,-539.307 818.8,-549.114 824.04,-544.472"/>
</g>
<!-- 63 name: write -->
<g id="node43" class="node"><title>63 name: write</title>
<ellipse fill="none" stroke="black" cx="927.347" cy="-522" rx="64.189" ry="18"/>
<text text-anchor="middle" x="927.347" y="-518.3" font-family="Times,serif" font-size="14.00">63 name: write</text>
</g>
<!-- 62 var: &#45;&gt;63 name: write -->
<g id="edge42" class="edge"><title>62 var: &#45;&gt;63 name: write</title>
<path fill="none" stroke="black" d="M877.096,-577.116C885.253,-568.331 895.563,-557.229 904.718,-547.37"/>
<polygon fill="black" stroke="black" points="907.509,-549.507 911.749,-539.797 902.38,-544.744 907.509,-549.507"/>
</g>
<!-- 65 explist:  -->
<g id="node45" class="node"><title>65 explist: </title>
<ellipse fill="none" stroke="black" cx="1059.35" cy="-522" rx="50.0912" ry="18"/>
<text text-anchor="middle" x="1059.35" y="-518.3" font-family="Times,serif" font-size="14.00">65 explist: </text>
</g>
<!-- 66 args: &#45;&gt;65 explist:  -->
<g id="edge44" class="edge"><title>66 args: &#45;&gt;65 explist: </title>
<path fill="none" stroke="black" d="M981.342,-578.155C995.326,-568.267 1013.91,-555.124 1029.44,-544.148"/>
<polygon fill="black" stroke="black" points="1031.55,-546.939 1037.7,-538.308 1027.51,-541.223 1031.55,-546.939"/>
</g>
<!-- 64 exp: ...\n -->
<g id="node46" class="node"><title>64 exp: ...\n</title>
<ellipse fill="none" stroke="black" cx="1059.35" cy="-450" rx="46.5926" ry="18"/>
<text text-anchor="middle" x="1059.35" y="-446.3" font-family="Times,serif" font-size="14.00">64 exp: ...</text>
</g>
<!-- 65 explist: &#45;&gt;64 exp: ...\n -->
<g id="edge45" class="edge"><title>65 explist: &#45;&gt;64 exp: ...\n</title>
<path fill="none" stroke="black" d="M1059.35,-503.697C1059.35,-495.983 1059.35,-486.712 1059.35,-478.112"/>
<polygon fill="black" stroke="black" points="1062.85,-478.104 1059.35,-468.104 1055.85,-478.104 1062.85,-478.104"/>
</g>
<!-- 68 var: print -->
<g id="node48" class="node"><title>68 var: print</title>
<ellipse fill="none" stroke="black" cx="1074.35" cy="-594" rx="54.6905" ry="18"/>
<text text-anchor="middle" x="1074.35" y="-590.3" font-family="Times,serif" font-size="14.00">68 var: print</text>
</g>
<!-- 81 functioncall: &#45;&gt;68 var: print -->
<g id="edge47" class="edge"><title>81 functioncall: &#45;&gt;68 var: print</title>
<path fill="none" stroke="black" d="M1074.35,-647.697C1074.35,-639.983 1074.35,-630.712 1074.35,-622.112"/>
<polygon fill="black" stroke="black" points="1077.85,-622.104 1074.35,-612.104 1070.85,-622.104 1077.85,-622.104"/>
</g>
<!-- 80 args:  -->
<g id="node49" class="node"><title>80 args: </title>
<ellipse fill="none" stroke="black" cx="1188.35" cy="-594" rx="41.6928" ry="18"/>
<text text-anchor="middle" x="1188.35" y="-590.3" font-family="Times,serif" font-size="14.00">80 args: </text>
</g>
<!-- 81 functioncall: &#45;&gt;80 args:  -->
<g id="edge48" class="edge"><title>81 functioncall: &#45;&gt;80 args: </title>
<path fill="none" stroke="black" d="M1100.21,-649.116C1116.89,-638.88 1138.68,-625.496 1156.43,-614.6"/>
<polygon fill="black" stroke="black" points="1158.6,-617.374 1165.29,-609.159 1154.93,-611.409 1158.6,-617.374"/>
</g>
<!-- 79 explist:  -->
<g id="node50" class="node"><title>79 explist: </title>
<ellipse fill="none" stroke="black" cx="1188.35" cy="-522" rx="50.0912" ry="18"/>
<text text-anchor="middle" x="1188.35" y="-518.3" font-family="Times,serif" font-size="14.00">79 explist: </text>
</g>
<!-- 80 args: &#45;&gt;79 explist:  -->
<g id="edge49" class="edge"><title>80 args: &#45;&gt;79 explist: </title>
<path fill="none" stroke="black" d="M1188.35,-575.697C1188.35,-567.983 1188.35,-558.712 1188.35,-550.112"/>
<polygon fill="black" stroke="black" points="1191.85,-550.104 1188.35,-540.104 1184.85,-550.104 1191.85,-550.104"/>
</g>
<!-- 78 exp:  -->
<g id="node51" class="node"><title>78 exp: </title>
<ellipse fill="none" stroke="black" cx="1188.35" cy="-450" rx="39.7935" ry="18"/>
<text text-anchor="middle" x="1188.35" y="-446.3" font-family="Times,serif" font-size="14.00">78 exp: </text>
</g>
<!-- 79 explist: &#45;&gt;78 exp:  -->
<g id="edge50" class="edge"><title>79 explist: &#45;&gt;78 exp: </title>
<path fill="none" stroke="black" d="M1188.35,-503.697C1188.35,-495.983 1188.35,-486.712 1188.35,-478.112"/>
<polygon fill="black" stroke="black" points="1191.85,-478.104 1188.35,-468.104 1184.85,-478.104 1191.85,-478.104"/>
</g>
<!-- 69 exp: 20 -->
<g id="node52" class="node"><title>69 exp: 20</title>
<ellipse fill="none" stroke="black" cx="1070.35" cy="-378" rx="48.1917" ry="18"/>
<text text-anchor="middle" x="1070.35" y="-374.3" font-family="Times,serif" font-size="14.00">69 exp: 20</text>
</g>
<!-- 78 exp: &#45;&gt;69 exp: 20 -->
<g id="edge51" class="edge"><title>78 exp: &#45;&gt;69 exp: 20</title>
<path fill="none" stroke="black" d="M1165.31,-435.337C1147.75,-424.917 1123.31,-410.417 1103.62,-398.737"/>
<polygon fill="black" stroke="black" points="1105.33,-395.686 1094.95,-393.594 1101.76,-401.706 1105.33,-395.686"/>
</g>
<!-- 70 binop: + -->
<g id="node53" class="node"><title>70 binop: +</title>
<ellipse fill="none" stroke="black" cx="1188.35" cy="-378" rx="51.9908" ry="18"/>
<text text-anchor="middle" x="1188.35" y="-374.3" font-family="Times,serif" font-size="14.00">70 binop: +</text>
</g>
<!-- 78 exp: &#45;&gt;70 binop: + -->
<g id="edge52" class="edge"><title>78 exp: &#45;&gt;70 binop: +</title>
<path fill="none" stroke="black" d="M1188.35,-431.697C1188.35,-423.983 1188.35,-414.712 1188.35,-406.112"/>
<polygon fill="black" stroke="black" points="1191.85,-406.104 1188.35,-396.104 1184.85,-406.104 1191.85,-406.104"/>
</g>
<!-- 77 exp:  -->
<g id="node54" class="node"><title>77 exp: </title>
<ellipse fill="none" stroke="black" cx="1298.35" cy="-378" rx="39.7935" ry="18"/>
<text text-anchor="middle" x="1298.35" y="-374.3" font-family="Times,serif" font-size="14.00">77 exp: </text>
</g>
<!-- 78 exp: &#45;&gt;77 exp:  -->
<g id="edge53" class="edge"><title>78 exp: &#45;&gt;77 exp: </title>
<path fill="none" stroke="black" d="M1210.34,-435.003C1226.72,-424.579 1249.3,-410.212 1267.48,-398.64"/>
<polygon fill="black" stroke="black" points="1269.45,-401.535 1276.01,-393.213 1265.7,-395.629 1269.45,-401.535"/>
</g>
<!-- 71 exp: 20 -->
<g id="node55" class="node"><title>71 exp: 20</title>
<ellipse fill="none" stroke="black" cx="1180.35" cy="-306" rx="48.1917" ry="18"/>
<text text-anchor="middle" x="1180.35" y="-302.3" font-family="Times,serif" font-size="14.00">71 exp: 20</text>
</g>
<!-- 77 exp: &#45;&gt;71 exp: 20 -->
<g id="edge54" class="edge"><title>77 exp: &#45;&gt;71 exp: 20</title>
<path fill="none" stroke="black" d="M1275.31,-363.337C1257.75,-352.917 1233.31,-338.417 1213.62,-326.737"/>
<polygon fill="black" stroke="black" points="1215.33,-323.686 1204.95,-321.594 1211.76,-329.706 1215.33,-323.686"/>
</g>
<!-- 72 binop: + -->
<g id="node56" class="node"><title>72 binop: +</title>
<ellipse fill="none" stroke="black" cx="1298.35" cy="-306" rx="51.9908" ry="18"/>
<text text-anchor="middle" x="1298.35" y="-302.3" font-family="Times,serif" font-size="14.00">72 binop: +</text>
</g>
<!-- 77 exp: &#45;&gt;72 binop: + -->
<g id="edge55" class="edge"><title>77 exp: &#45;&gt;72 binop: +</title>
<path fill="none" stroke="black" d="M1298.35,-359.697C1298.35,-351.983 1298.35,-342.712 1298.35,-334.112"/>
<polygon fill="black" stroke="black" points="1301.85,-334.104 1298.35,-324.104 1294.85,-334.104 1301.85,-334.104"/>
</g>
<!-- 76 exp:  -->
<g id="node57" class="node"><title>76 exp: </title>
<ellipse fill="none" stroke="black" cx="1408.35" cy="-306" rx="39.7935" ry="18"/>
<text text-anchor="middle" x="1408.35" y="-302.3" font-family="Times,serif" font-size="14.00">76 exp: </text>
</g>
<!-- 77 exp: &#45;&gt;76 exp:  -->
<g id="edge56" class="edge"><title>77 exp: &#45;&gt;76 exp: </title>
<path fill="none" stroke="black" d="M1320.34,-363.003C1336.72,-352.579 1359.3,-338.212 1377.48,-326.64"/>
<polygon fill="black" stroke="black" points="1379.45,-329.535 1386.01,-321.213 1375.7,-323.629 1379.45,-329.535"/>
</g>
<!-- 73 exp: 20 -->
<g id="node58" class="node"><title>73 exp: 20</title>
<ellipse fill="none" stroke="black" cx="1290.35" cy="-234" rx="48.1917" ry="18"/>
<text text-anchor="middle" x="1290.35" y="-230.3" font-family="Times,serif" font-size="14.00">73 exp: 20</text>
</g>
<!-- 76 exp: &#45;&gt;73 exp: 20 -->
<g id="edge57" class="edge"><title>76 exp: &#45;&gt;73 exp: 20</title>
<path fill="none" stroke="black" d="M1385.31,-291.337C1367.75,-280.917 1343.31,-266.417 1323.62,-254.737"/>
<polygon fill="black" stroke="black" points="1325.33,-251.686 1314.95,-249.594 1321.76,-257.706 1325.33,-251.686"/>
</g>
<!-- 74 binop: + -->
<g id="node59" class="node"><title>74 binop: +</title>
<ellipse fill="none" stroke="black" cx="1408.35" cy="-234" rx="51.9908" ry="18"/>
<text text-anchor="middle" x="1408.35" y="-230.3" font-family="Times,serif" font-size="14.00">74 binop: +</text>
</g>
<!-- 76 exp: &#45;&gt;74 binop: + -->
<g id="edge58" class="edge"><title>76 exp: &#45;&gt;74 binop: +</title>
<path fill="none" stroke="black" d="M1408.35,-287.697C1408.35,-279.983 1408.35,-270.712 1408.35,-262.112"/>
<polygon fill="black" stroke="black" points="1411.85,-262.104 1408.35,-252.104 1404.85,-262.104 1411.85,-262.104"/>
</g>
<!-- 75 exp: 20 -->
<g id="node60" class="node"><title>75 exp: 20</title>
<ellipse fill="none" stroke="black" cx="1526.35" cy="-234" rx="48.1917" ry="18"/>
<text text-anchor="middle" x="1526.35" y="-230.3" font-family="Times,serif" font-size="14.00">75 exp: 20</text>
</g>
<!-- 76 exp: &#45;&gt;75 exp: 20 -->
<g id="edge59" class="edge"><title>76 exp: &#45;&gt;75 exp: 20</title>
<path fill="none" stroke="black" d="M1431.38,-291.337C1448.94,-280.917 1473.39,-266.417 1493.08,-254.737"/>
<polygon fill="black" stroke="black" points="1494.93,-257.706 1501.75,-249.594 1491.36,-251.686 1494.93,-257.706"/>
</g>
</g>
</svg>
