<?xml version="1.0" encoding="UTF-8" standalone="no"?>
<!DOCTYPE svg PUBLIC "-//W3C//DTD SVG 1.1//EN"
 "http://www.w3.org/Graphics/SVG/1.1/DTD/svg11.dtd">
<!-- Generated by graphviz version 2.38.0 (20140413.2041)
 -->
<!-- Title: G Pages: 1 -->
<svg width="1357pt" height="404pt"
 viewBox="0.00 0.00 1357.24 404.00" xmlns="http://www.w3.org/2000/svg" xmlns:xlink="http://www.w3.org/1999/xlink">
<g id="graph0" class="graph" transform="scale(1 1) rotate(0) translate(4 400)">
<title>G</title>
<polygon fill="white" stroke="none" points="-4,4 -4,-400 1353.24,-400 1353.24,4 -4,4"/>
<!-- 6 chunk:  -->
<g id="node1" class="node"><title>6 chunk: </title>
<ellipse fill="none" stroke="black" cx="667.196" cy="-378" rx="44.393" ry="18"/>
<text text-anchor="middle" x="667.196" y="-374.3" font-family="Times,serif" font-size="14.00">6 chunk: </text>
</g>
<!-- 5 stat:  -->
<g id="node2" class="node"><title>5 stat: </title>
<ellipse fill="none" stroke="black" cx="152.196" cy="-306" rx="34.394" ry="18"/>
<text text-anchor="middle" x="152.196" y="-302.3" font-family="Times,serif" font-size="14.00">5 stat: </text>
</g>
<!-- 6 chunk: &#45;&gt;5 stat:  -->
<g id="edge1" class="edge"><title>6 chunk: &#45;&gt;5 stat: </title>
<path fill="none" stroke="black" d="M625.922,-371.39C530.004,-358.353 292.823,-326.114 195.216,-312.847"/>
<polygon fill="black" stroke="black" points="195.496,-309.353 185.116,-311.475 194.553,-316.29 195.496,-309.353"/>
</g>
<!-- 17 stat:  -->
<g id="node7" class="node"><title>17 stat: </title>
<ellipse fill="none" stroke="black" cx="372.196" cy="-306" rx="38.9931" ry="18"/>
<text text-anchor="middle" x="372.196" y="-302.3" font-family="Times,serif" font-size="14.00">17 stat: </text>
</g>
<!-- 6 chunk: &#45;&gt;17 stat:  -->
<g id="edge6" class="edge"><title>6 chunk: &#45;&gt;17 stat: </title>
<path fill="none" stroke="black" d="M629.834,-368.134C575.28,-355.189 474.024,-331.163 416.025,-317.4"/>
<polygon fill="black" stroke="black" points="416.603,-313.94 406.066,-315.037 414.987,-320.751 416.603,-313.94"/>
</g>
<!-- 25 stat:  -->
<g id="node18" class="node"><title>25 stat: </title>
<ellipse fill="none" stroke="black" cx="604.196" cy="-306" rx="38.9931" ry="18"/>
<text text-anchor="middle" x="604.196" y="-302.3" font-family="Times,serif" font-size="14.00">25 stat: </text>
</g>
<!-- 6 chunk: &#45;&gt;25 stat:  -->
<g id="edge17" class="edge"><title>6 chunk: &#45;&gt;25 stat: </title>
<path fill="none" stroke="black" d="M652.584,-360.765C644.553,-351.841 634.443,-340.608 625.544,-330.719"/>
<polygon fill="black" stroke="black" points="628.02,-328.239 618.729,-323.147 622.817,-332.922 628.02,-328.239"/>
</g>
<!-- 30 functioncall:  -->
<g id="node26" class="node"><title>30 functioncall: </title>
<ellipse fill="none" stroke="black" cx="730.196" cy="-306" rx="68.7879" ry="18"/>
<text text-anchor="middle" x="730.196" y="-302.3" font-family="Times,serif" font-size="14.00">30 functioncall: </text>
</g>
<!-- 6 chunk: &#45;&gt;30 functioncall:  -->
<g id="edge25" class="edge"><title>6 chunk: &#45;&gt;30 functioncall: </title>
<path fill="none" stroke="black" d="M681.808,-360.765C689.724,-351.969 699.661,-340.928 708.466,-331.144"/>
<polygon fill="black" stroke="black" points="711.138,-333.408 715.226,-323.633 705.935,-328.725 711.138,-333.408"/>
</g>
<!-- 35 functioncall:  -->
<g id="node31" class="node"><title>35 functioncall: </title>
<ellipse fill="none" stroke="black" cx="957.196" cy="-306" rx="68.7879" ry="18"/>
<text text-anchor="middle" x="957.196" y="-302.3" font-family="Times,serif" font-size="14.00">35 functioncall: </text>
</g>
<!-- 6 chunk: &#45;&gt;35 functioncall:  -->
<g id="edge30" class="edge"><title>6 chunk: &#45;&gt;35 functioncall: </title>
<path fill="none" stroke="black" d="M704.219,-368.063C753.297,-356.217 840.447,-335.181 898.531,-321.161"/>
<polygon fill="black" stroke="black" points="899.407,-324.55 908.306,-318.801 897.764,-317.745 899.407,-324.55"/>
</g>
<!-- 40 functioncall:  -->
<g id="node36" class="node"><title>40 functioncall: </title>
<ellipse fill="none" stroke="black" cx="1185.2" cy="-306" rx="68.7879" ry="18"/>
<text text-anchor="middle" x="1185.2" y="-302.3" font-family="Times,serif" font-size="14.00">40 functioncall: </text>
</g>
<!-- 6 chunk: &#45;&gt;40 functioncall:  -->
<g id="edge35" class="edge"><title>6 chunk: &#45;&gt;40 functioncall: </title>
<path fill="none" stroke="black" d="M708.711,-371.39C797.411,-359.403 1006.21,-331.187 1115.6,-316.405"/>
<polygon fill="black" stroke="black" points="1116.1,-319.869 1125.54,-315.061 1115.17,-312.932 1116.1,-319.869"/>
</g>
<!-- 2 varlist:  -->
<g id="node3" class="node"><title>2 varlist: </title>
<ellipse fill="none" stroke="black" cx="44.1961" cy="-234" rx="44.393" ry="18"/>
<text text-anchor="middle" x="44.1961" y="-230.3" font-family="Times,serif" font-size="14.00">2 varlist: </text>
</g>
<!-- 5 stat: &#45;&gt;2 varlist:  -->
<g id="edge2" class="edge"><title>5 stat: &#45;&gt;2 varlist: </title>
<path fill="none" stroke="black" d="M131.373,-291.503C115.464,-281.192 93.2843,-266.816 75.2782,-255.146"/>
<polygon fill="black" stroke="black" points="77.1152,-252.166 66.82,-249.664 73.3079,-258.04 77.1152,-252.166"/>
</g>
<!-- 4 explist:  -->
<g id="node5" class="node"><title>4 explist: </title>
<ellipse fill="none" stroke="black" cx="152.196" cy="-234" rx="46.2923" ry="18"/>
<text text-anchor="middle" x="152.196" y="-230.3" font-family="Times,serif" font-size="14.00">4 explist: </text>
</g>
<!-- 5 stat: &#45;&gt;4 explist:  -->
<g id="edge4" class="edge"><title>5 stat: &#45;&gt;4 explist: </title>
<path fill="none" stroke="black" d="M152.196,-287.697C152.196,-279.983 152.196,-270.712 152.196,-262.112"/>
<polygon fill="black" stroke="black" points="155.696,-262.104 152.196,-252.104 148.696,-262.104 155.696,-262.104"/>
</g>
<!-- 1 var: x -->
<g id="node4" class="node"><title>1 var: x</title>
<ellipse fill="none" stroke="black" cx="44.1961" cy="-162" rx="38.1938" ry="18"/>
<text text-anchor="middle" x="44.1961" y="-158.3" font-family="Times,serif" font-size="14.00">1 var: x</text>
</g>
<!-- 2 varlist: &#45;&gt;1 var: x -->
<g id="edge3" class="edge"><title>2 varlist: &#45;&gt;1 var: x</title>
<path fill="none" stroke="black" d="M44.1961,-215.697C44.1961,-207.983 44.1961,-198.712 44.1961,-190.112"/>
<polygon fill="black" stroke="black" points="47.6962,-190.104 44.1961,-180.104 40.6962,-190.104 47.6962,-190.104"/>
</g>
<!-- 3 exp: 7 -->
<g id="node6" class="node"><title>3 exp: 7</title>
<ellipse fill="none" stroke="black" cx="152.196" cy="-162" rx="39.7935" ry="18"/>
<text text-anchor="middle" x="152.196" y="-158.3" font-family="Times,serif" font-size="14.00">3 exp: 7</text>
</g>
<!-- 4 explist: &#45;&gt;3 exp: 7 -->
<g id="edge5" class="edge"><title>4 explist: &#45;&gt;3 exp: 7</title>
<path fill="none" stroke="black" d="M152.196,-215.697C152.196,-207.983 152.196,-198.712 152.196,-190.112"/>
<polygon fill="black" stroke="black" points="155.696,-190.104 152.196,-180.104 148.696,-190.104 155.696,-190.104"/>
</g>
<!-- 8 varlist:  -->
<g id="node8" class="node"><title>8 varlist: </title>
<ellipse fill="none" stroke="black" cx="260.196" cy="-234" rx="44.393" ry="18"/>
<text text-anchor="middle" x="260.196" y="-230.3" font-family="Times,serif" font-size="14.00">8 varlist: </text>
</g>
<!-- 17 stat: &#45;&gt;8 varlist:  -->
<g id="edge7" class="edge"><title>17 stat: &#45;&gt;8 varlist: </title>
<path fill="none" stroke="black" d="M350.068,-291.17C333.523,-280.829 310.659,-266.539 292.134,-254.961"/>
<polygon fill="black" stroke="black" points="293.769,-251.856 283.434,-249.524 290.059,-257.792 293.769,-251.856"/>
</g>
<!-- 16 explist:  -->
<g id="node10" class="node"><title>16 explist: </title>
<ellipse fill="none" stroke="black" cx="372.196" cy="-234" rx="50.0912" ry="18"/>
<text text-anchor="middle" x="372.196" y="-230.3" font-family="Times,serif" font-size="14.00">16 explist: </text>
</g>
<!-- 17 stat: &#45;&gt;16 explist:  -->
<g id="edge9" class="edge"><title>17 stat: &#45;&gt;16 explist: </title>
<path fill="none" stroke="black" d="M372.196,-287.697C372.196,-279.983 372.196,-270.712 372.196,-262.112"/>
<polygon fill="black" stroke="black" points="375.696,-262.104 372.196,-252.104 368.696,-262.104 375.696,-262.104"/>
</g>
<!-- 7 var: y -->
<g id="node9" class="node"><title>7 var: y</title>
<ellipse fill="none" stroke="black" cx="260.196" cy="-162" rx="38.1938" ry="18"/>
<text text-anchor="middle" x="260.196" y="-158.3" font-family="Times,serif" font-size="14.00">7 var: y</text>
</g>
<!-- 8 varlist: &#45;&gt;7 var: y -->
<g id="edge8" class="edge"><title>8 varlist: &#45;&gt;7 var: y</title>
<path fill="none" stroke="black" d="M260.196,-215.697C260.196,-207.983 260.196,-198.712 260.196,-190.112"/>
<polygon fill="black" stroke="black" points="263.696,-190.104 260.196,-180.104 256.696,-190.104 263.696,-190.104"/>
</g>
<!-- 14 exp:  -->
<g id="node11" class="node"><title>14 exp: </title>
<ellipse fill="none" stroke="black" cx="364.196" cy="-162" rx="39.7935" ry="18"/>
<text text-anchor="middle" x="364.196" y="-158.3" font-family="Times,serif" font-size="14.00">14 exp: </text>
</g>
<!-- 16 explist: &#45;&gt;14 exp:  -->
<g id="edge10" class="edge"><title>16 explist: &#45;&gt;14 exp: </title>
<path fill="none" stroke="black" d="M370.219,-215.697C369.337,-207.983 368.278,-198.712 367.295,-190.112"/>
<polygon fill="black" stroke="black" points="370.764,-189.642 366.151,-180.104 363.809,-190.437 370.764,-189.642"/>
</g>
<!-- 11 exp:  -->
<g id="node12" class="node"><title>11 exp: </title>
<ellipse fill="none" stroke="black" cx="261.196" cy="-90" rx="39.7935" ry="18"/>
<text text-anchor="middle" x="261.196" y="-86.3" font-family="Times,serif" font-size="14.00">11 exp: </text>
</g>
<!-- 14 exp: &#45;&gt;11 exp:  -->
<g id="edge11" class="edge"><title>14 exp: &#45;&gt;11 exp: </title>
<path fill="none" stroke="black" d="M342.854,-146.496C327.801,-136.266 307.44,-122.428 290.815,-111.13"/>
<polygon fill="black" stroke="black" points="292.749,-108.212 282.51,-105.485 288.814,-114.001 292.749,-108.212"/>
</g>
<!-- 15 *:  -->
<g id="node16" class="node"><title>15 *: </title>
<ellipse fill="none" stroke="black" cx="350.196" cy="-90" rx="31.3957" ry="18"/>
<text text-anchor="middle" x="350.196" y="-86.3" font-family="Times,serif" font-size="14.00">15 *: </text>
</g>
<!-- 14 exp: &#45;&gt;15 *:  -->
<g id="edge15" class="edge"><title>14 exp: &#45;&gt;15 *: </title>
<path fill="none" stroke="black" d="M360.807,-144.055C359.265,-136.346 357.401,-127.027 355.669,-118.364"/>
<polygon fill="black" stroke="black" points="359.044,-117.395 353.651,-108.275 352.18,-118.768 359.044,-117.395"/>
</g>
<!-- 13 exp: 2 -->
<g id="node17" class="node"><title>13 exp: 2</title>
<ellipse fill="none" stroke="black" cx="443.196" cy="-90" rx="44.393" ry="18"/>
<text text-anchor="middle" x="443.196" y="-86.3" font-family="Times,serif" font-size="14.00">13 exp: 2</text>
</g>
<!-- 14 exp: &#45;&gt;13 exp: 2 -->
<g id="edge16" class="edge"><title>14 exp: &#45;&gt;13 exp: 2</title>
<path fill="none" stroke="black" d="M381.729,-145.465C392.292,-136.105 405.928,-124.022 417.672,-113.616"/>
<polygon fill="black" stroke="black" points="420.276,-115.985 425.439,-106.734 415.634,-110.746 420.276,-115.985"/>
</g>
<!-- 9 exp: 10 -->
<g id="node13" class="node"><title>9 exp: 10</title>
<ellipse fill="none" stroke="black" cx="166.196" cy="-18" rx="44.393" ry="18"/>
<text text-anchor="middle" x="166.196" y="-14.3" font-family="Times,serif" font-size="14.00">9 exp: 10</text>
</g>
<!-- 11 exp: &#45;&gt;9 exp: 10 -->
<g id="edge12" class="edge"><title>11 exp: &#45;&gt;9 exp: 10</title>
<path fill="none" stroke="black" d="M241.049,-74.1548C227.663,-64.2916 209.881,-51.189 195.008,-40.2296"/>
<polygon fill="black" stroke="black" points="196.768,-37.1795 186.642,-34.0651 192.616,-42.8149 196.768,-37.1795"/>
</g>
<!-- 12 +:  -->
<g id="node14" class="node"><title>12 +: </title>
<ellipse fill="none" stroke="black" cx="261.196" cy="-18" rx="32.4942" ry="18"/>
<text text-anchor="middle" x="261.196" y="-14.3" font-family="Times,serif" font-size="14.00">12 +: </text>
</g>
<!-- 11 exp: &#45;&gt;12 +:  -->
<g id="edge13" class="edge"><title>11 exp: &#45;&gt;12 +: </title>
<path fill="none" stroke="black" d="M261.196,-71.6966C261.196,-63.9827 261.196,-54.7125 261.196,-46.1124"/>
<polygon fill="black" stroke="black" points="264.696,-46.1043 261.196,-36.1043 257.696,-46.1044 264.696,-46.1043"/>
</g>
<!-- 10 var: x -->
<g id="node15" class="node"><title>10 var: x</title>
<ellipse fill="none" stroke="black" cx="354.196" cy="-18" rx="42.4939" ry="18"/>
<text text-anchor="middle" x="354.196" y="-14.3" font-family="Times,serif" font-size="14.00">10 var: x</text>
</g>
<!-- 11 exp: &#45;&gt;10 var: x -->
<g id="edge14" class="edge"><title>11 exp: &#45;&gt;10 var: x</title>
<path fill="none" stroke="black" d="M280.919,-74.1548C294.023,-64.2916 311.431,-51.189 325.991,-40.2296"/>
<polygon fill="black" stroke="black" points="328.296,-42.8753 334.181,-34.0651 324.086,-37.2825 328.296,-42.8753"/>
</g>
<!-- 19 varlist:  -->
<g id="node19" class="node"><title>19 varlist: </title>
<ellipse fill="none" stroke="black" cx="489.196" cy="-234" rx="48.9926" ry="18"/>
<text text-anchor="middle" x="489.196" y="-230.3" font-family="Times,serif" font-size="14.00">19 varlist: </text>
</g>
<!-- 25 stat: &#45;&gt;19 varlist:  -->
<g id="edge18" class="edge"><title>25 stat: &#45;&gt;19 varlist: </title>
<path fill="none" stroke="black" d="M581.476,-291.17C564.523,-280.851 541.11,-266.6 522.109,-255.034"/>
<polygon fill="black" stroke="black" points="523.819,-251.977 513.457,-249.768 520.179,-257.957 523.819,-251.977"/>
</g>
<!-- 24 explist:  -->
<g id="node21" class="node"><title>24 explist: </title>
<ellipse fill="none" stroke="black" cx="606.196" cy="-234" rx="50.0912" ry="18"/>
<text text-anchor="middle" x="606.196" y="-230.3" font-family="Times,serif" font-size="14.00">24 explist: </text>
</g>
<!-- 25 stat: &#45;&gt;24 explist:  -->
<g id="edge20" class="edge"><title>25 stat: &#45;&gt;24 explist: </title>
<path fill="none" stroke="black" d="M604.69,-287.697C604.911,-279.983 605.176,-270.712 605.421,-262.112"/>
<polygon fill="black" stroke="black" points="608.92,-262.2 605.707,-252.104 601.923,-262 608.92,-262.2"/>
</g>
<!-- 18 var: z -->
<g id="node20" class="node"><title>18 var: z</title>
<ellipse fill="none" stroke="black" cx="489.196" cy="-162" rx="42.4939" ry="18"/>
<text text-anchor="middle" x="489.196" y="-158.3" font-family="Times,serif" font-size="14.00">18 var: z</text>
</g>
<!-- 19 varlist: &#45;&gt;18 var: z -->
<g id="edge19" class="edge"><title>19 varlist: &#45;&gt;18 var: z</title>
<path fill="none" stroke="black" d="M489.196,-215.697C489.196,-207.983 489.196,-198.712 489.196,-190.112"/>
<polygon fill="black" stroke="black" points="492.696,-190.104 489.196,-180.104 485.696,-190.104 492.696,-190.104"/>
</g>
<!-- 22 exp:  -->
<g id="node22" class="node"><title>22 exp: </title>
<ellipse fill="none" stroke="black" cx="619.196" cy="-162" rx="39.7935" ry="18"/>
<text text-anchor="middle" x="619.196" y="-158.3" font-family="Times,serif" font-size="14.00">22 exp: </text>
</g>
<!-- 24 explist: &#45;&gt;22 exp:  -->
<g id="edge21" class="edge"><title>24 explist: &#45;&gt;22 exp: </title>
<path fill="none" stroke="black" d="M609.41,-215.697C610.842,-207.983 612.564,-198.712 614.161,-190.112"/>
<polygon fill="black" stroke="black" points="617.635,-190.575 616.02,-180.104 610.752,-189.297 617.635,-190.575"/>
</g>
<!-- 20 var: y -->
<g id="node23" class="node"><title>20 var: y</title>
<ellipse fill="none" stroke="black" cx="547.196" cy="-90" rx="42.4939" ry="18"/>
<text text-anchor="middle" x="547.196" y="-86.3" font-family="Times,serif" font-size="14.00">20 var: y</text>
</g>
<!-- 22 exp: &#45;&gt;20 var: y -->
<g id="edge22" class="edge"><title>22 exp: &#45;&gt;20 var: y</title>
<path fill="none" stroke="black" d="M603.217,-145.465C593.682,-136.195 581.401,-124.254 570.768,-113.917"/>
<polygon fill="black" stroke="black" points="572.989,-111.195 563.38,-106.734 568.11,-116.214 572.989,-111.195"/>
</g>
<!-- 23 &#45;:  -->
<g id="node24" class="node"><title>23 &#45;: </title>
<ellipse fill="none" stroke="black" cx="637.196" cy="-90" rx="29.795" ry="18"/>
<text text-anchor="middle" x="637.196" y="-86.3" font-family="Times,serif" font-size="14.00">23 &#45;: </text>
</g>
<!-- 22 exp: &#45;&gt;23 &#45;:  -->
<g id="edge23" class="edge"><title>22 exp: &#45;&gt;23 &#45;: </title>
<path fill="none" stroke="black" d="M623.553,-144.055C625.558,-136.261 627.985,-126.822 630.233,-118.079"/>
<polygon fill="black" stroke="black" points="633.653,-118.832 632.754,-108.275 626.874,-117.089 633.653,-118.832"/>
</g>
<!-- 21 var: x -->
<g id="node25" class="node"><title>21 var: x</title>
<ellipse fill="none" stroke="black" cx="727.196" cy="-90" rx="42.4939" ry="18"/>
<text text-anchor="middle" x="727.196" y="-86.3" font-family="Times,serif" font-size="14.00">21 var: x</text>
</g>
<!-- 22 exp: &#45;&gt;21 var: x -->
<g id="edge24" class="edge"><title>22 exp: &#45;&gt;21 var: x</title>
<path fill="none" stroke="black" d="M641.051,-146.834C656.903,-136.561 678.564,-122.521 696.199,-111.09"/>
<polygon fill="black" stroke="black" points="698.515,-113.761 705.002,-105.385 694.707,-107.887 698.515,-113.761"/>
</g>
<!-- 26 var: print -->
<g id="node27" class="node"><title>26 var: print</title>
<ellipse fill="none" stroke="black" cx="729.196" cy="-234" rx="54.6905" ry="18"/>
<text text-anchor="middle" x="729.196" y="-230.3" font-family="Times,serif" font-size="14.00">26 var: print</text>
</g>
<!-- 30 functioncall: &#45;&gt;26 var: print -->
<g id="edge26" class="edge"><title>30 functioncall: &#45;&gt;26 var: print</title>
<path fill="none" stroke="black" d="M729.949,-287.697C729.839,-279.983 729.706,-270.712 729.583,-262.112"/>
<polygon fill="black" stroke="black" points="733.083,-262.053 729.44,-252.104 726.084,-262.153 733.083,-262.053"/>
</g>
<!-- 29 args:  -->
<g id="node28" class="node"><title>29 args: </title>
<ellipse fill="none" stroke="black" cx="843.196" cy="-234" rx="41.6928" ry="18"/>
<text text-anchor="middle" x="843.196" y="-230.3" font-family="Times,serif" font-size="14.00">29 args: </text>
</g>
<!-- 30 functioncall: &#45;&gt;29 args:  -->
<g id="edge27" class="edge"><title>30 functioncall: &#45;&gt;29 args: </title>
<path fill="none" stroke="black" d="M755.838,-289.116C772.362,-278.88 793.966,-265.496 811.556,-254.6"/>
<polygon fill="black" stroke="black" points="813.682,-257.401 820.339,-249.159 809.995,-251.45 813.682,-257.401"/>
</g>
<!-- 28 explist:  -->
<g id="node29" class="node"><title>28 explist: </title>
<ellipse fill="none" stroke="black" cx="843.196" cy="-162" rx="50.0912" ry="18"/>
<text text-anchor="middle" x="843.196" y="-158.3" font-family="Times,serif" font-size="14.00">28 explist: </text>
</g>
<!-- 29 args: &#45;&gt;28 explist:  -->
<g id="edge28" class="edge"><title>29 args: &#45;&gt;28 explist: </title>
<path fill="none" stroke="black" d="M843.196,-215.697C843.196,-207.983 843.196,-198.712 843.196,-190.112"/>
<polygon fill="black" stroke="black" points="846.696,-190.104 843.196,-180.104 839.696,-190.104 846.696,-190.104"/>
</g>
<!-- 27 var: x -->
<g id="node30" class="node"><title>27 var: x</title>
<ellipse fill="none" stroke="black" cx="843.196" cy="-90" rx="42.4939" ry="18"/>
<text text-anchor="middle" x="843.196" y="-86.3" font-family="Times,serif" font-size="14.00">27 var: x</text>
</g>
<!-- 28 explist: &#45;&gt;27 var: x -->
<g id="edge29" class="edge"><title>28 explist: &#45;&gt;27 var: x</title>
<path fill="none" stroke="black" d="M843.196,-143.697C843.196,-135.983 843.196,-126.712 843.196,-118.112"/>
<polygon fill="black" stroke="black" points="846.696,-118.104 843.196,-108.104 839.696,-118.104 846.696,-118.104"/>
</g>
<!-- 31 var: print -->
<g id="node32" class="node"><title>31 var: print</title>
<ellipse fill="none" stroke="black" cx="957.196" cy="-234" rx="54.6905" ry="18"/>
<text text-anchor="middle" x="957.196" y="-230.3" font-family="Times,serif" font-size="14.00">31 var: print</text>
</g>
<!-- 35 functioncall: &#45;&gt;31 var: print -->
<g id="edge31" class="edge"><title>35 functioncall: &#45;&gt;31 var: print</title>
<path fill="none" stroke="black" d="M957.196,-287.697C957.196,-279.983 957.196,-270.712 957.196,-262.112"/>
<polygon fill="black" stroke="black" points="960.696,-262.104 957.196,-252.104 953.696,-262.104 960.696,-262.104"/>
</g>
<!-- 34 args:  -->
<g id="node33" class="node"><title>34 args: </title>
<ellipse fill="none" stroke="black" cx="1071.2" cy="-234" rx="41.6928" ry="18"/>
<text text-anchor="middle" x="1071.2" y="-230.3" font-family="Times,serif" font-size="14.00">34 args: </text>
</g>
<!-- 35 functioncall: &#45;&gt;34 args:  -->
<g id="edge32" class="edge"><title>35 functioncall: &#45;&gt;34 args: </title>
<path fill="none" stroke="black" d="M983.064,-289.116C999.735,-278.88 1021.53,-265.496 1039.28,-254.6"/>
<polygon fill="black" stroke="black" points="1041.45,-257.374 1048.14,-249.159 1037.78,-251.409 1041.45,-257.374"/>
</g>
<!-- 33 explist:  -->
<g id="node34" class="node"><title>33 explist: </title>
<ellipse fill="none" stroke="black" cx="1071.2" cy="-162" rx="50.0912" ry="18"/>
<text text-anchor="middle" x="1071.2" y="-158.3" font-family="Times,serif" font-size="14.00">33 explist: </text>
</g>
<!-- 34 args: &#45;&gt;33 explist:  -->
<g id="edge33" class="edge"><title>34 args: &#45;&gt;33 explist: </title>
<path fill="none" stroke="black" d="M1071.2,-215.697C1071.2,-207.983 1071.2,-198.712 1071.2,-190.112"/>
<polygon fill="black" stroke="black" points="1074.7,-190.104 1071.2,-180.104 1067.7,-190.104 1074.7,-190.104"/>
</g>
<!-- 32 var: y -->
<g id="node35" class="node"><title>32 var: y</title>
<ellipse fill="none" stroke="black" cx="1071.2" cy="-90" rx="42.4939" ry="18"/>
<text text-anchor="middle" x="1071.2" y="-86.3" font-family="Times,serif" font-size="14.00">32 var: y</text>
</g>
<!-- 33 explist: &#45;&gt;32 var: y -->
<g id="edge34" class="edge"><title>33 explist: &#45;&gt;32 var: y</title>
<path fill="none" stroke="black" d="M1071.2,-143.697C1071.2,-135.983 1071.2,-126.712 1071.2,-118.112"/>
<polygon fill="black" stroke="black" points="1074.7,-118.104 1071.2,-108.104 1067.7,-118.104 1074.7,-118.104"/>
</g>
<!-- 36 var: print -->
<g id="node37" class="node"><title>36 var: print</title>
<ellipse fill="none" stroke="black" cx="1185.2" cy="-234" rx="54.6905" ry="18"/>
<text text-anchor="middle" x="1185.2" y="-230.3" font-family="Times,serif" font-size="14.00">36 var: print</text>
</g>
<!-- 40 functioncall: &#45;&gt;36 var: print -->
<g id="edge36" class="edge"><title>40 functioncall: &#45;&gt;36 var: print</title>
<path fill="none" stroke="black" d="M1185.2,-287.697C1185.2,-279.983 1185.2,-270.712 1185.2,-262.112"/>
<polygon fill="black" stroke="black" points="1188.7,-262.104 1185.2,-252.104 1181.7,-262.104 1188.7,-262.104"/>
</g>
<!-- 39 args:  -->
<g id="node38" class="node"><title>39 args: </title>
<ellipse fill="none" stroke="black" cx="1299.2" cy="-234" rx="41.6928" ry="18"/>
<text text-anchor="middle" x="1299.2" y="-230.3" font-family="Times,serif" font-size="14.00">39 args: </text>
</g>
<!-- 40 functioncall: &#45;&gt;39 args:  -->
<g id="edge37" class="edge"><title>40 functioncall: &#45;&gt;39 args: </title>
<path fill="none" stroke="black" d="M1211.06,-289.116C1227.74,-278.88 1249.53,-265.496 1267.28,-254.6"/>
<polygon fill="black" stroke="black" points="1269.45,-257.374 1276.14,-249.159 1265.78,-251.409 1269.45,-257.374"/>
</g>
<!-- 38 explist:  -->
<g id="node39" class="node"><title>38 explist: </title>
<ellipse fill="none" stroke="black" cx="1299.2" cy="-162" rx="50.0912" ry="18"/>
<text text-anchor="middle" x="1299.2" y="-158.3" font-family="Times,serif" font-size="14.00">38 explist: </text>
</g>
<!-- 39 args: &#45;&gt;38 explist:  -->
<g id="edge38" class="edge"><title>39 args: &#45;&gt;38 explist: </title>
<path fill="none" stroke="black" d="M1299.2,-215.697C1299.2,-207.983 1299.2,-198.712 1299.2,-190.112"/>
<polygon fill="black" stroke="black" points="1302.7,-190.104 1299.2,-180.104 1295.7,-190.104 1302.7,-190.104"/>
</g>
<!-- 37 var: z -->
<g id="node40" class="node"><title>37 var: z</title>
<ellipse fill="none" stroke="black" cx="1299.2" cy="-90" rx="42.4939" ry="18"/>
<text text-anchor="middle" x="1299.2" y="-86.3" font-family="Times,serif" font-size="14.00">37 var: z</text>
</g>
<!-- 38 explist: &#45;&gt;37 var: z -->
<g id="edge39" class="edge"><title>38 explist: &#45;&gt;37 var: z</title>
<path fill="none" stroke="black" d="M1299.2,-143.697C1299.2,-135.983 1299.2,-126.712 1299.2,-118.112"/>
<polygon fill="black" stroke="black" points="1302.7,-118.104 1299.2,-108.104 1295.7,-118.104 1302.7,-118.104"/>
</g>
</g>
</svg>
