<?xml version="1.0" encoding="UTF-8" standalone="no"?>
<!DOCTYPE svg PUBLIC "-//W3C//DTD SVG 1.1//EN"
 "http://www.w3.org/Graphics/SVG/1.1/DTD/svg11.dtd">
<!-- Generated by graphviz version 2.38.0 (20140413.2041)
 -->
<!-- Title: structs Pages: 1 -->
<svg width="487pt" height="460pt"
 viewBox="0.00 0.00 486.50 460.00" xmlns="http://www.w3.org/2000/svg" xmlns:xlink="http://www.w3.org/1999/xlink">
<g id="graph0" class="graph" transform="scale(1 1) rotate(0) translate(4 456)">
<title>structs</title>
<polygon fill="white" stroke="none" points="-4,4 -4,-456 482.5,-456 482.5,4 -4,4"/>
<!-- blk0 -->
<g id="node1" class="node"><title>blk0</title>
<polygon fill="none" stroke="black" points="478.5,-452 196.5,-452 196.5,-369 478.5,-369 478.5,-452"/>
<text text-anchor="middle" x="337.5" y="-436.8" font-family="Times,serif" font-size="14.00">output &lt;&#45; &quot;enter a number:&quot; o &quot;enter a number:&quot;</text>
<text text-anchor="middle" x="337.5" y="-421.8" font-family="Times,serif" font-size="14.00">_t0 &lt;&#45; &quot;*number&quot; i &quot;*number&quot;</text>
<text text-anchor="middle" x="337.5" y="-406.8" font-family="Times,serif" font-size="14.00">n &lt;&#45; _t0 = _t0</text>
<text text-anchor="middle" x="337.5" y="-391.8" font-family="Times,serif" font-size="14.00">i &lt;&#45; 2 = 2</text>
<text text-anchor="middle" x="337.5" y="-376.8" font-family="Times,serif" font-size="14.00">_t1 &lt;&#45; i l n</text>
</g>
<!-- blk2 -->
<g id="node2" class="node"><title>blk2</title>
<polygon fill="none" stroke="black" points="337.5,-318 245.5,-318 245.5,-280 337.5,-280 337.5,-318"/>
<text text-anchor="middle" x="291.5" y="-302.8" font-family="Times,serif" font-size="14.00">_t2 &lt;&#45; n % i</text>
<text text-anchor="middle" x="291.5" y="-287.8" font-family="Times,serif" font-size="14.00">_t3 &lt;&#45; _t2 e 0</text>
</g>
<!-- blk0&#45;&gt;blk2 -->
<g id="edge1" class="edge"><title>blk0&#45;&gt;blk2</title>
<path fill="none" stroke="green" d="M320.371,-368.726C314.607,-355.004 308.315,-340.027 303.08,-327.567"/>
<polygon fill="green" stroke="green" points="306.239,-326.049 299.14,-318.185 299.786,-328.761 306.239,-326.049"/>
<text text-anchor="middle" x="323.5" y="-339.8" font-family="Times,serif" font-size="14.00">true</text>
</g>
<!-- blk1 -->
<g id="node5" class="node"><title>blk1</title>
<polygon fill="none" stroke="black" points="355.5,-36 301.5,-36 301.5,-0 355.5,-0 355.5,-36"/>
</g>
<!-- blk0&#45;&gt;blk1 -->
<g id="edge7" class="edge"><title>blk0&#45;&gt;blk1</title>
<path fill="none" stroke="red" d="M353.056,-368.79C359.501,-348.44 365.5,-323.252 365.5,-300 365.5,-300 365.5,-300 365.5,-105 365.5,-83.6682 355.775,-61.6056 346.297,-45.168"/>
<polygon fill="red" stroke="red" points="349.015,-42.9029 340.82,-36.1878 343.039,-46.5477 349.015,-42.9029"/>
<text text-anchor="middle" x="378.5" y="-198.8" font-family="Times,serif" font-size="14.00">false</text>
</g>
<!-- blk4 -->
<g id="node3" class="node"><title>blk4</title>
<polygon fill="none" stroke="black" points="263,-229 0,-229 0,-176 263,-176 263,-229"/>
<text text-anchor="middle" x="131.5" y="-213.8" font-family="Times,serif" font-size="14.00">output &lt;&#45; i o i</text>
<text text-anchor="middle" x="131.5" y="-198.8" font-family="Times,serif" font-size="14.00">output &lt;&#45; &quot; is a factor of &quot; o &quot; is a factor of &quot;</text>
<text text-anchor="middle" x="131.5" y="-183.8" font-family="Times,serif" font-size="14.00">output &lt;&#45; n o n</text>
</g>
<!-- blk2&#45;&gt;blk4 -->
<g id="edge2" class="edge"><title>blk2&#45;&gt;blk4</title>
<path fill="none" stroke="green" d="M260.65,-279.779C238.88,-266.922 209.182,-249.381 183.753,-234.362"/>
<polygon fill="green" stroke="green" points="185.347,-231.238 174.957,-229.167 181.787,-237.266 185.347,-231.238"/>
<text text-anchor="middle" x="242.5" y="-250.8" font-family="Times,serif" font-size="14.00">true</text>
</g>
<!-- blk3 -->
<g id="node4" class="node"><title>blk3</title>
<polygon fill="none" stroke="black" points="297.5,-125 217.5,-125 217.5,-87 297.5,-87 297.5,-125"/>
<text text-anchor="middle" x="257.5" y="-109.8" font-family="Times,serif" font-size="14.00">_t4 &lt;&#45; i + 1</text>
<text text-anchor="middle" x="257.5" y="-94.8" font-family="Times,serif" font-size="14.00">_t5 &lt;&#45; i l n</text>
</g>
<!-- blk2&#45;&gt;blk3 -->
<g id="edge6" class="edge"><title>blk2&#45;&gt;blk3</title>
<path fill="none" stroke="red" d="M288.732,-279.774C285.054,-255.894 278.235,-212.734 271.5,-176 269.02,-162.474 266.016,-147.511 263.428,-134.986"/>
<polygon fill="red" stroke="red" points="266.839,-134.199 261.372,-125.124 259.986,-135.627 266.839,-134.199"/>
<text text-anchor="middle" x="293.5" y="-198.8" font-family="Times,serif" font-size="14.00">false</text>
</g>
<!-- blk4&#45;&gt;blk3 -->
<g id="edge3" class="edge"><title>blk4&#45;&gt;blk3</title>
<path fill="none" stroke="green" d="M165.597,-175.927C184.179,-161.991 207.043,-144.843 225.317,-131.137"/>
<polygon fill="green" stroke="green" points="227.459,-133.906 233.359,-125.106 223.258,-128.306 227.459,-133.906"/>
<text text-anchor="middle" x="220.5" y="-146.8" font-family="Times,serif" font-size="14.00">true</text>
</g>
<!-- blk3&#45;&gt;blk3 -->
<g id="edge4" class="edge"><title>blk3&#45;&gt;blk3</title>
<path fill="none" stroke="green" d="M297.619,-114.151C307.832,-113.616 315.5,-110.898 315.5,-106 315.5,-102.938 312.505,-100.729 307.765,-99.3717"/>
<polygon fill="green" stroke="green" points="308.027,-95.872 297.619,-97.8487 306.988,-102.794 308.027,-95.872"/>
<text text-anchor="middle" x="326.5" y="-102.3" font-family="Times,serif" font-size="14.00">true</text>
</g>
<!-- blk3&#45;&gt;blk1 -->
<g id="edge5" class="edge"><title>blk3&#45;&gt;blk1</title>
<path fill="none" stroke="red" d="M272.557,-86.7616C282.805,-74.3489 296.5,-57.7602 307.775,-44.1032"/>
<polygon fill="red" stroke="red" points="310.763,-45.9821 314.43,-36.0422 305.365,-41.5255 310.763,-45.9821"/>
<text text-anchor="middle" x="312.5" y="-57.8" font-family="Times,serif" font-size="14.00">false</text>
</g>
</g>
</svg>
