<?xml version="1.0" encoding="UTF-8" standalone="no"?>
<!DOCTYPE svg PUBLIC "-//W3C//DTD SVG 1.1//EN"
 "http://www.w3.org/Graphics/SVG/1.1/DTD/svg11.dtd">
<!-- Generated by graphviz version 2.38.0 (20140413.2041)
 -->
<!-- Title: structs Pages: 1 -->
<svg width="535pt" height="460pt"
 viewBox="0.00 0.00 534.50 460.00" xmlns="http://www.w3.org/2000/svg" xmlns:xlink="http://www.w3.org/1999/xlink">
<g id="graph0" class="graph" transform="scale(1 1) rotate(0) translate(4 456)">
<title>structs</title>
<polygon fill="white" stroke="none" points="-4,4 -4,-456 530.5,-456 530.5,4 -4,4"/>
<!-- blk0 -->
<g id="node1" class="node"><title>blk0</title>
<polygon fill="none" stroke="black" points="526.5,-452 244.5,-452 244.5,-369 526.5,-369 526.5,-452"/>
<text text-anchor="middle" x="385.5" y="-436.8" font-family="Times,serif" font-size="14.00">output &lt;&#45; &quot;enter a number:&quot; o &quot;enter a number:&quot;</text>
<text text-anchor="middle" x="385.5" y="-421.8" font-family="Times,serif" font-size="14.00">_t0 &lt;&#45; &quot;*number&quot; i &quot;*number&quot;</text>
<text text-anchor="middle" x="385.5" y="-406.8" font-family="Times,serif" font-size="14.00">n &lt;&#45; _t0 = _t0</text>
<text text-anchor="middle" x="385.5" y="-391.8" font-family="Times,serif" font-size="14.00">i &lt;&#45; 2 = 2</text>
<text text-anchor="middle" x="385.5" y="-376.8" font-family="Times,serif" font-size="14.00">_t1 &lt;&#45; i l n</text>
</g>
<!-- blk2 -->
<g id="node2" class="node"><title>blk2</title>
<polygon fill="none" stroke="black" points="368.5,-318 276.5,-318 276.5,-280 368.5,-280 368.5,-318"/>
<text text-anchor="middle" x="322.5" y="-302.8" font-family="Times,serif" font-size="14.00">_t2 &lt;&#45; n % i</text>
<text text-anchor="middle" x="322.5" y="-287.8" font-family="Times,serif" font-size="14.00">_t3 &lt;&#45; _t2 e 0</text>
</g>
<!-- blk0&#45;&gt;blk2 -->
<g id="edge1" class="edge"><title>blk0&#45;&gt;blk2</title>
<path fill="none" stroke="green" d="M362.041,-368.726C354.068,-354.868 345.358,-339.73 338.148,-327.197"/>
<polygon fill="green" stroke="green" points="340.984,-325.108 332.963,-318.185 334.916,-328.599 340.984,-325.108"/>
<text text-anchor="middle" x="361.5" y="-339.8" font-family="Times,serif" font-size="14.00">true</text>
</g>
<!-- blk1 -->
<g id="node5" class="node"><title>blk1</title>
<polygon fill="none" stroke="black" points="412.5,-36 358.5,-36 358.5,-0 412.5,-0 412.5,-36"/>
</g>
<!-- blk0&#45;&gt;blk1 -->
<g id="edge7" class="edge"><title>blk0&#45;&gt;blk1</title>
<path fill="none" stroke="red" d="M404.488,-368.824C412.276,-348.589 419.5,-323.489 419.5,-300 419.5,-300 419.5,-300 419.5,-105 419.5,-83.7948 410.45,-61.5786 401.688,-45.0391"/>
<polygon fill="red" stroke="red" points="404.571,-43.0242 396.633,-36.0074 398.463,-46.443 404.571,-43.0242"/>
<text text-anchor="middle" x="432.5" y="-198.8" font-family="Times,serif" font-size="14.00">false</text>
</g>
<!-- blk4 -->
<g id="node3" class="node"><title>blk4</title>
<polygon fill="none" stroke="black" points="263,-229 0,-229 0,-176 263,-176 263,-229"/>
<text text-anchor="middle" x="131.5" y="-213.8" font-family="Times,serif" font-size="14.00">output &lt;&#45; i o i</text>
<text text-anchor="middle" x="131.5" y="-198.8" font-family="Times,serif" font-size="14.00">output &lt;&#45; &quot; is a factor of &quot; o &quot; is a factor of &quot;</text>
<text text-anchor="middle" x="131.5" y="-183.8" font-family="Times,serif" font-size="14.00">output &lt;&#45; n o n</text>
</g>
<!-- blk2&#45;&gt;blk4 -->
<g id="edge2" class="edge"><title>blk2&#45;&gt;blk4</title>
<path fill="none" stroke="green" d="M285.673,-279.779C259.345,-266.753 223.303,-248.921 192.687,-233.773"/>
<polygon fill="green" stroke="green" points="193.891,-230.464 183.376,-229.167 190.787,-236.738 193.891,-230.464"/>
<text text-anchor="middle" x="261.5" y="-250.8" font-family="Times,serif" font-size="14.00">true</text>
</g>
<!-- blk3 -->
<g id="node4" class="node"><title>blk3</title>
<polygon fill="none" stroke="black" points="365.5,-125 285.5,-125 285.5,-87 365.5,-87 365.5,-125"/>
<text text-anchor="middle" x="325.5" y="-109.8" font-family="Times,serif" font-size="14.00">_t4 &lt;&#45; i + 1</text>
<text text-anchor="middle" x="325.5" y="-94.8" font-family="Times,serif" font-size="14.00">_t5 &lt;&#45; i l n</text>
</g>
<!-- blk2&#45;&gt;blk3 -->
<g id="edge5" class="edge"><title>blk2&#45;&gt;blk3</title>
<path fill="none" stroke="red" d="M314.703,-279.955C309.23,-266.265 302.392,-246.824 299.5,-229 295.727,-205.749 295.279,-199.174 299.5,-176 302.07,-161.889 307.372,-146.912 312.521,-134.53"/>
<polygon fill="red" stroke="red" points="315.789,-135.79 316.562,-125.223 309.369,-133.002 315.789,-135.79"/>
<text text-anchor="middle" x="312.5" y="-198.8" font-family="Times,serif" font-size="14.00">false</text>
</g>
<!-- blk4&#45;&gt;blk3 -->
<g id="edge3" class="edge"><title>blk4&#45;&gt;blk3</title>
<path fill="none" stroke="green" d="M183.999,-175.927C213.769,-161.426 250.677,-143.447 279.335,-129.488"/>
<polygon fill="green" stroke="green" points="280.872,-132.632 288.33,-125.106 277.807,-126.339 280.872,-132.632"/>
<text text-anchor="middle" x="263.5" y="-146.8" font-family="Times,serif" font-size="14.00">true</text>
</g>
<!-- blk3&#45;&gt;blk2 -->
<g id="edge4" class="edge"><title>blk3&#45;&gt;blk2</title>
<path fill="none" stroke="green" d="M327.042,-125.197C328.846,-149.047 331.363,-192.173 329.5,-229 328.822,-242.393 327.409,-257.193 326.029,-269.64"/>
<polygon fill="green" stroke="green" points="322.517,-269.542 324.844,-279.878 329.471,-270.347 322.517,-269.542"/>
<text text-anchor="middle" x="341.5" y="-198.8" font-family="Times,serif" font-size="14.00">true</text>
</g>
<!-- blk3&#45;&gt;blk1 -->
<g id="edge6" class="edge"><title>blk3&#45;&gt;blk1</title>
<path fill="none" stroke="red" d="M338.224,-86.7616C346.803,-74.466 358.24,-58.0729 367.716,-44.4905"/>
<polygon fill="red" stroke="red" points="370.759,-46.2462 373.61,-36.0422 365.018,-42.2409 370.759,-46.2462"/>
<text text-anchor="middle" x="374.5" y="-57.8" font-family="Times,serif" font-size="14.00">false</text>
</g>
</g>
</svg>
