<?xml version="1.0" encoding="UTF-8" standalone="no"?>
<!DOCTYPE svg PUBLIC "-//W3C//DTD SVG 1.1//EN"
 "http://www.w3.org/Graphics/SVG/1.1/DTD/svg11.dtd">
<!-- Generated by graphviz version 2.38.0 (20140413.2041)
 -->
<!-- Title: structs Pages: 1 -->
<svg width="214pt" height="244pt"
 viewBox="0.00 0.00 214.00 244.00" xmlns="http://www.w3.org/2000/svg" xmlns:xlink="http://www.w3.org/1999/xlink">
<g id="graph0" class="graph" transform="scale(1 1) rotate(0) translate(4 240)">
<title>structs</title>
<polygon fill="white" stroke="none" points="-4,4 -4,-240 210,-240 210,4 -4,4"/>
<!-- blk0 -->
<g id="node1" class="node"><title>blk0</title>
<polygon fill="none" stroke="black" points="56,-166.5 56,-235.5 150,-235.5 150,-166.5 56,-166.5"/>
<text text-anchor="middle" x="103" y="-220.3" font-family="Times,serif" font-size="14.00">_t0 &lt;&#45; x + 1</text>
<polyline fill="none" stroke="black" points="56,-212.5 150,-212.5 "/>
<text text-anchor="middle" x="103" y="-197.3" font-family="Times,serif" font-size="14.00">x &lt;&#45; _t0 = _t0</text>
<polyline fill="none" stroke="black" points="56,-189.5 150,-189.5 "/>
<text text-anchor="middle" x="103" y="-174.3" font-family="Times,serif" font-size="14.00">_t1 &lt;&#45; x e 10</text>
</g>
<!-- blk2 -->
<g id="node2" class="node"><title>blk2</title>
<polygon fill="none" stroke="black" points="0,-83.5 0,-129.5 94,-129.5 94,-83.5 0,-83.5"/>
<text text-anchor="middle" x="47" y="-114.3" font-family="Times,serif" font-size="14.00">_t2 &lt;&#45; x + 1</text>
<polyline fill="none" stroke="black" points="0,-106.5 94,-106.5 "/>
<text text-anchor="middle" x="47" y="-91.3" font-family="Times,serif" font-size="14.00">y &lt;&#45; _t2 = _t2</text>
</g>
<!-- blk0&#45;&gt;blk2 -->
<g id="edge1" class="edge"><title>blk0&#45;&gt;blk2</title>
<path fill="none" stroke="green" d="M82.6243,-166.344C77.089,-157.201 71.1233,-147.347 65.6864,-138.366"/>
<polygon fill="green" stroke="green" points="68.6343,-136.477 60.4613,-129.735 62.6462,-140.102 68.6343,-136.477"/>
</g>
<!-- blk3 -->
<g id="node4" class="node"><title>blk3</title>
<polygon fill="none" stroke="black" points="112,-83.5 112,-129.5 206,-129.5 206,-83.5 112,-83.5"/>
<text text-anchor="middle" x="159" y="-114.3" font-family="Times,serif" font-size="14.00">_t3 &lt;&#45; x * 2</text>
<polyline fill="none" stroke="black" points="112,-106.5 206,-106.5 "/>
<text text-anchor="middle" x="159" y="-91.3" font-family="Times,serif" font-size="14.00">y &lt;&#45; _t3 = _t3</text>
</g>
<!-- blk0&#45;&gt;blk3 -->
<g id="edge3" class="edge"><title>blk0&#45;&gt;blk3</title>
<path fill="none" stroke="red" d="M123.376,-166.344C128.911,-157.201 134.877,-147.347 140.314,-138.366"/>
<polygon fill="red" stroke="red" points="143.354,-140.102 145.539,-129.735 137.366,-136.477 143.354,-140.102"/>
</g>
<!-- blk1 -->
<g id="node3" class="node"><title>blk1</title>
<polygon fill="none" stroke="black" points="56,-0.5 56,-46.5 150,-46.5 150,-0.5 56,-0.5"/>
<text text-anchor="middle" x="103" y="-31.3" font-family="Times,serif" font-size="14.00">_t4 &lt;&#45; x + 1</text>
<polyline fill="none" stroke="black" points="56,-23.5 150,-23.5 "/>
<text text-anchor="middle" x="103" y="-8.3" font-family="Times,serif" font-size="14.00">x &lt;&#45; _t4 = _t4</text>
</g>
<!-- blk2&#45;&gt;blk1 -->
<g id="edge2" class="edge"><title>blk2&#45;&gt;blk1</title>
<path fill="none" stroke="green" d="M62.3022,-83.3664C68.352,-74.6159 75.405,-64.4142 81.9239,-54.9851"/>
<polygon fill="green" stroke="green" points="84.9084,-56.8228 87.7163,-46.6068 79.1504,-52.842 84.9084,-56.8228"/>
</g>
<!-- blk3&#45;&gt;blk1 -->
<g id="edge4" class="edge"><title>blk3&#45;&gt;blk1</title>
<path fill="none" stroke="green" d="M143.698,-83.3664C137.648,-74.6159 130.595,-64.4142 124.076,-54.9851"/>
<polygon fill="green" stroke="green" points="126.85,-52.842 118.284,-46.6068 121.092,-56.8228 126.85,-52.842"/>
</g>
</g>
</svg>
