<?xml version="1.0" encoding="UTF-8" standalone="no"?>
<!DOCTYPE svg PUBLIC "-//W3C//DTD SVG 1.1//EN"
 "http://www.w3.org/Graphics/SVG/1.1/DTD/svg11.dtd">
<!-- Generated by graphviz version 2.38.0 (20140413.2041)
 -->
<!-- Title: structs Pages: 1 -->
<svg width="237pt" height="460pt"
 viewBox="0.00 0.00 237.00 460.00" xmlns="http://www.w3.org/2000/svg" xmlns:xlink="http://www.w3.org/1999/xlink">
<g id="graph0" class="graph" transform="scale(1 1) rotate(0) translate(4 456)">
<title>structs</title>
<polygon fill="white" stroke="none" points="-4,4 -4,-456 233,-456 233,4 -4,4"/>
<!-- blk0 -->
<g id="node1" class="node"><title>blk0</title>
<polygon fill="none" stroke="black" points="210.5,-452 116.5,-452 116.5,-369 210.5,-369 210.5,-452"/>
<text text-anchor="middle" x="163.5" y="-436.8" font-family="Times,serif" font-size="14.00">_t0 &lt;&#45; x + 1</text>
<text text-anchor="middle" x="163.5" y="-421.8" font-family="Times,serif" font-size="14.00">x &lt;&#45; _t0 = _t0</text>
<text text-anchor="middle" x="163.5" y="-406.8" font-family="Times,serif" font-size="14.00">_t1 &lt;&#45; y + 1</text>
<text text-anchor="middle" x="163.5" y="-391.8" font-family="Times,serif" font-size="14.00">y &lt;&#45; _t1 = _t1</text>
<text text-anchor="middle" x="163.5" y="-376.8" font-family="Times,serif" font-size="14.00">_t2 &lt;&#45; x e 0</text>
</g>
<!-- blk2 -->
<g id="node2" class="node"><title>blk2</title>
<polygon fill="none" stroke="black" points="164,-318 83,-318 83,-282 164,-282 164,-318"/>
<text text-anchor="middle" x="123.5" y="-296.3" font-family="Times,serif" font-size="14.00">_t3 &lt;&#45; y e 0</text>
</g>
<!-- blk0&#45;&gt;blk2 -->
<g id="edge1" class="edge"><title>blk0&#45;&gt;blk2</title>
<path fill="none" stroke="green" d="M148.492,-368.79C143.435,-355.072 137.923,-340.121 133.365,-327.759"/>
<polygon fill="green" stroke="green" points="136.535,-326.239 129.792,-318.067 129.967,-328.66 136.535,-326.239"/>
<text text-anchor="middle" x="152.5" y="-339.8" font-family="Times,serif" font-size="14.00">true</text>
</g>
<!-- blk6 -->
<g id="node7" class="node"><title>blk6</title>
<polygon fill="none" stroke="black" points="229,-264 156,-264 156,-228 229,-228 229,-264"/>
<text text-anchor="middle" x="192.5" y="-242.3" font-family="Times,serif" font-size="14.00">y &lt;&#45; 3 = 3</text>
</g>
<!-- blk0&#45;&gt;blk6 -->
<g id="edge7" class="edge"><title>blk0&#45;&gt;blk6</title>
<path fill="none" stroke="red" d="M170.743,-368.914C176.022,-339.335 183.029,-300.068 187.647,-274.192"/>
<polygon fill="red" stroke="red" points="191.098,-274.779 189.409,-264.319 184.207,-273.549 191.098,-274.779"/>
<text text-anchor="middle" x="189.5" y="-339.8" font-family="Times,serif" font-size="14.00">false</text>
</g>
<!-- blk4 -->
<g id="node3" class="node"><title>blk4</title>
<polygon fill="none" stroke="black" points="73,-210 0,-210 0,-174 73,-174 73,-210"/>
<text text-anchor="middle" x="36.5" y="-188.3" font-family="Times,serif" font-size="14.00">x &lt;&#45; 1 = 1</text>
</g>
<!-- blk2&#45;&gt;blk4 -->
<g id="edge2" class="edge"><title>blk2&#45;&gt;blk4</title>
<path fill="none" stroke="green" d="M109.316,-281.93C104.594,-276.235 99.313,-269.85 94.5,-264 82.0224,-248.834 68.0986,-231.793 57.0215,-218.208"/>
<polygon fill="green" stroke="green" points="59.5613,-215.784 50.5306,-210.244 54.1352,-220.207 59.5613,-215.784"/>
<text text-anchor="middle" x="105.5" y="-242.3" font-family="Times,serif" font-size="14.00">true</text>
</g>
<!-- blk5 -->
<g id="node6" class="node"><title>blk5</title>
<polygon fill="none" stroke="black" points="164,-210 91,-210 91,-174 164,-174 164,-210"/>
<text text-anchor="middle" x="127.5" y="-188.3" font-family="Times,serif" font-size="14.00">y &lt;&#45; 2 = 2</text>
</g>
<!-- blk2&#45;&gt;blk5 -->
<g id="edge5" class="edge"><title>blk2&#45;&gt;blk5</title>
<path fill="none" stroke="red" d="M121.416,-281.745C120.002,-267.344 118.689,-246.293 120.5,-228 120.751,-225.464 121.102,-222.84 121.515,-220.221"/>
<polygon fill="red" stroke="red" points="124.964,-220.813 123.328,-210.345 118.079,-219.548 124.964,-220.813"/>
<text text-anchor="middle" x="133.5" y="-242.3" font-family="Times,serif" font-size="14.00">false</text>
</g>
<!-- blk3 -->
<g id="node4" class="node"><title>blk3</title>
<polygon fill="none" stroke="black" points="154.5,-123 100.5,-123 100.5,-87 154.5,-87 154.5,-123"/>
</g>
<!-- blk4&#45;&gt;blk3 -->
<g id="edge3" class="edge"><title>blk4&#45;&gt;blk3</title>
<path fill="none" stroke="green" d="M54.9152,-173.799C68.3598,-161.241 86.7648,-144.049 101.677,-130.12"/>
<polygon fill="green" stroke="green" points="104.193,-132.559 109.112,-123.175 99.4151,-127.444 104.193,-132.559"/>
<text text-anchor="middle" x="98.5" y="-144.8" font-family="Times,serif" font-size="14.00">true</text>
</g>
<!-- blk1 -->
<g id="node5" class="node"><title>blk1</title>
<polygon fill="none" stroke="black" points="193.5,-36 139.5,-36 139.5,-0 193.5,-0 193.5,-36"/>
</g>
<!-- blk3&#45;&gt;blk1 -->
<g id="edge4" class="edge"><title>blk3&#45;&gt;blk1</title>
<path fill="none" stroke="green" d="M135.392,-86.799C140.837,-74.9322 148.18,-58.9279 154.365,-45.4488"/>
<polygon fill="green" stroke="green" points="157.63,-46.724 158.62,-36.1754 151.268,-43.8048 157.63,-46.724"/>
<text text-anchor="middle" x="160.5" y="-57.8" font-family="Times,serif" font-size="14.00">true</text>
</g>
<!-- blk5&#45;&gt;blk3 -->
<g id="edge6" class="edge"><title>blk5&#45;&gt;blk3</title>
<path fill="none" stroke="green" d="M127.5,-173.799C127.5,-162.163 127.5,-146.548 127.5,-133.237"/>
<polygon fill="green" stroke="green" points="131,-133.175 127.5,-123.175 124,-133.175 131,-133.175"/>
<text text-anchor="middle" x="138.5" y="-144.8" font-family="Times,serif" font-size="14.00">true</text>
</g>
<!-- blk6&#45;&gt;blk1 -->
<g id="edge8" class="edge"><title>blk6&#45;&gt;blk1</title>
<path fill="none" stroke="green" d="M191.906,-227.758C190.541,-194.122 186.413,-117.487 175.5,-54 175.063,-51.4571 174.534,-48.8279 173.954,-46.2059"/>
<polygon fill="green" stroke="green" points="177.315,-45.2152 171.551,-36.3259 170.514,-46.8699 177.315,-45.2152"/>
<text text-anchor="middle" x="199.5" y="-144.8" font-family="Times,serif" font-size="14.00">true</text>
</g>
</g>
</svg>
